<svg width="102" height="102" viewBox="0 0 102 102" fill="none" xmlns="http://www.w3.org/2000/svg">
<circle cx="51" cy="51" r="51" fill="white"/>
<path d="M29.5046 55.1262C29.6849 55.1262 29.9544 55.1263 30.2247 54.9416C30.4951 54.8498 30.6745 54.8498 30.9449 55.0335C31.1251 55.1254 31.3045 55.31 31.3946 55.5865C32.2049 58.537 33.9138 61.2119 36.3436 63.4247C36.4338 63.5166 36.5239 63.7013 36.614 63.8859L38.5932 71.816H43.362L44.0821 68.9574C44.1723 68.6809 44.2624 68.4962 44.5319 68.4044C44.7121 68.3125 44.9816 68.2197 45.252 68.3125C49.4809 69.5112 54.1604 69.5112 58.3892 68.3125C58.839 68.2206 59.3789 68.4044 59.469 68.9582L60.3685 71.9087H64.5072L65.2274 65.362C65.2274 65.0855 65.4076 64.9009 65.587 64.7162C66.9106 63.7129 68.0913 62.5339 69.0966 61.2119C69.1377 61.1279 69.2018 61.0574 69.2814 61.0084C69.361 60.9595 69.4529 60.9341 69.5464 60.9354L77.375 58.446V50.4231C76.5635 50.125 75.7804 49.7546 75.0353 49.3163C74.3151 48.947 73.6851 48.5786 72.6054 48.2094C72.335 48.1175 72.1556 47.8401 72.0655 47.5636C71.2552 44.6131 69.6356 41.8464 67.2967 39.5408C67.1594 39.3955 67.0688 39.2123 67.0367 39.015C67.0046 38.8177 67.0324 38.6152 67.1165 38.4339L69.8159 33.0859C67.4761 33.547 65.3166 34.9304 63.8773 36.221C63.6069 36.4975 63.2473 36.4975 62.8876 36.3129C59.5583 34.4684 55.689 33.5461 51.7296 33.5461C42.1912 33.5461 33.9129 39.0788 31.4839 46.917C31.4124 47.1532 31.2508 47.3519 31.0341 47.47C30.8539 47.5619 30.5844 47.5619 30.314 47.47C30.0436 47.3781 29.7741 47.2854 29.5939 47.2854C27.9751 47.288 26.625 49.0398 26.625 51.1608C26.625 53.2818 27.885 55.1262 29.5046 55.1262Z" fill="white"/>
<path d="M64.5072 72.7838H60.3685C59.9835 72.7838 59.644 72.5318 59.5311 72.1643L58.6316 69.2129L58.6185 69.1648C58.6001 69.1665 58.5835 69.1656 58.5642 69.1691C54.2365 70.3976 49.4021 70.3976 45.0122 69.1534C45.0201 69.1481 44.9921 69.1516 44.93 69.1831L44.9282 69.184L44.9134 69.2278L44.2099 72.0295C44.1622 72.2185 44.0528 72.3861 43.8991 72.506C43.7453 72.6258 43.556 72.6909 43.3611 72.691H38.5924C38.3972 72.691 38.2076 72.6256 38.0538 72.5055C37.9001 72.3853 37.7909 72.2171 37.7436 72.0278L35.7863 64.1843C35.7574 64.1248 35.7303 64.0688 35.7014 64.0233C33.1665 61.6975 31.3859 58.8616 30.5503 55.8175C30.5342 55.8089 30.5185 55.7999 30.503 55.7904C30.0883 56.0004 29.7041 56.0004 29.5046 56.0004C27.4344 56.0013 25.75 53.8295 25.75 51.1608C25.75 48.5427 27.4746 46.413 29.5948 46.413C29.9211 46.413 30.265 46.5302 30.5975 46.644L30.6377 46.6562C33.2312 38.4041 41.8876 32.6737 51.7296 32.6737C55.9104 32.6737 59.9152 33.6686 63.3111 35.5499L63.3172 35.5525C64.3007 34.6792 66.6764 32.8146 69.647 32.2292C69.8077 32.1977 69.974 32.2118 70.1271 32.2701C70.2801 32.3283 70.4138 32.4284 70.5128 32.5589C70.6118 32.6893 70.6722 32.8449 70.6871 33.008C70.702 33.1711 70.6709 33.3351 70.5973 33.4814L67.8979 38.8294C67.89 38.846 67.904 38.9107 67.9233 38.9309C70.3225 41.2951 72.0515 44.2045 72.9099 47.3326C72.9227 47.3652 72.9404 47.3956 72.9624 47.4227C73.8505 47.7106 74.477 48.0387 75.0834 48.3555L75.4343 48.5375C76.1493 48.9597 76.9011 49.3164 77.6804 49.6032C78.0225 49.731 78.25 50.0582 78.25 50.4231V58.4451C78.25 58.6309 78.1909 58.8118 78.0813 58.9617C77.9716 59.1116 77.8171 59.2227 77.6401 59.279L69.8115 61.7693L69.7599 61.7841C68.7268 63.1349 67.5186 64.3422 66.1671 65.3743L66.0971 65.4495L66.0963 65.4574L65.3761 72.0041C65.3532 72.2185 65.2517 72.4167 65.0913 72.5607C64.9309 72.7046 64.7228 72.7841 64.5072 72.7838ZM61.0169 71.0338H63.7241L64.3541 65.3043C64.376 64.704 64.7409 64.3313 64.9622 64.1046C64.9937 64.0723 65.027 64.0434 65.0629 64.0163C66.305 63.0742 67.4148 61.9694 68.3625 60.7315C68.4694 60.5498 68.617 60.3955 68.7938 60.2807C68.9706 60.1659 69.1716 60.0938 69.381 60.07L76.5 57.8055V51.0199C75.8427 50.7495 75.2055 50.4325 74.5934 50.0714L74.2722 49.906C73.7 49.6059 73.1584 49.3224 72.3236 49.038C71.8249 48.8674 71.4276 48.429 71.2342 47.8349C70.4459 44.964 68.8761 42.3259 66.6834 40.1646C66.1356 39.6029 65.9947 38.7392 66.3307 38.0506L68.1079 34.5296C66.3841 35.2585 65.0524 36.3435 64.4626 36.8729C63.977 37.3716 63.2227 37.4687 62.4895 37.0925C59.3264 35.3407 55.6146 34.422 51.7305 34.422C42.6296 34.422 34.6479 39.6667 32.3204 47.1769C32.1655 47.6529 31.8444 48.0396 31.434 48.2496C31.0403 48.4526 30.5293 48.4684 30.0314 48.2995C29.8896 48.2514 29.6542 48.1709 29.5729 48.1612C28.4791 48.163 27.5 49.5639 27.5 51.1608C27.5 52.8066 28.4371 54.2504 29.5046 54.2504C29.6324 54.2504 29.6884 54.2478 29.7304 54.2189C29.7951 54.1743 29.866 54.1392 29.9412 54.113C30.307 53.987 30.8005 53.8969 31.3946 54.2819C31.7805 54.498 32.0815 54.8716 32.2259 55.3161C32.9915 58.0995 34.6138 60.6668 36.9316 62.7773C37.1565 63.0056 37.2781 63.2559 37.3971 63.4974C37.4242 63.5525 37.447 63.6129 37.4619 63.6733L39.2758 70.941H42.6795L43.2325 68.7439C43.3305 68.4368 43.5186 67.8575 44.1845 67.5994C44.6421 67.3789 45.1085 67.3378 45.5338 67.4839C49.571 68.6275 54.0676 68.6275 58.1495 67.4699C58.7235 67.3483 59.2476 67.448 59.6501 67.7254C59.9975 67.9651 60.2337 68.3265 60.3195 68.7483L61.0169 71.0338Z" fill="#2A2552"/>
<path d="M65.7182 43.9508C66.6028 43.9508 67.3553 44.6761 67.3553 45.6281C67.3553 46.5801 66.6474 47.3055 65.7182 47.3055C64.8336 47.3055 64.0811 46.5801 64.0811 45.6281C64.0811 44.6761 64.8336 43.9508 65.7182 43.9508Z" fill="#A3D7E8"/>
<path d="M52 62.2033C57.3157 62.2033 61.625 57.858 61.625 52.4978C61.625 47.1376 57.3157 42.7923 52 42.7923C46.6843 42.7923 42.375 47.1376 42.375 52.4978C42.375 57.858 46.6843 62.2033 52 62.2033Z" fill="white"/>
<path d="M52 63.0783C46.2101 63.0783 41.5 58.3323 41.5 52.4978C41.5 46.6633 46.2101 41.9173 52 41.9173C57.7899 41.9173 62.5 46.6633 62.5 52.4978C62.5 58.3323 57.7899 63.0783 52 63.0783ZM52 43.6673C47.1753 43.6673 43.25 47.6284 43.25 52.4978C43.25 57.3671 47.1753 61.3283 52 61.3283C56.8247 61.3283 60.75 57.3671 60.75 52.4978C60.75 47.6284 56.8247 43.6673 52 43.6673Z" fill="#2A2552"/>
<path d="M55.45 53.6239C55.2734 53.2534 55.0278 52.9199 54.7264 52.6413C54.4174 52.3613 54.0704 52.1265 53.6956 51.9439C53.3194 51.7584 52.9151 51.5755 52.4934 51.4014C52.2013 51.2858 51.9114 51.1651 51.6236 51.0391C51.3948 50.9408 51.1776 50.8173 50.9761 50.6708C50.8156 50.5544 50.6819 50.4049 50.5841 50.2324C50.4975 50.0766 50.4538 49.878 50.4538 49.6435C50.4538 49.2148 50.6016 48.8928 50.9053 48.6609C51.2194 48.4203 51.6831 48.2986 52.2834 48.2986C52.8443 48.2986 53.3141 48.352 53.6808 48.4561C54.0736 48.569 54.3834 48.6723 54.6266 48.7711L54.8226 48.8508L55.2094 47.1375L55.0641 47.0806C54.7422 46.9609 54.4135 46.8604 54.0798 46.7796C53.6918 46.6823 53.2959 46.6199 52.8968 46.5933V44.6403H51.2028V46.6633C50.368 46.8225 49.7161 47.169 49.2629 47.6931C48.7799 48.2505 48.5349 48.9706 48.5349 49.8325C48.5349 50.3208 48.6198 50.7408 48.786 51.0838C48.9505 51.4206 49.1666 51.7138 49.4283 51.9526C49.6864 52.1889 49.9848 52.3919 50.3146 52.5546C50.6349 52.7121 50.9613 52.8574 51.2859 52.986C51.6061 53.1085 51.9299 53.2415 52.2501 53.3824C52.5529 53.5145 52.8233 53.6659 53.0534 53.8321C53.2748 53.9914 53.4533 54.1778 53.5845 54.3869C53.7105 54.5881 53.7744 54.8366 53.7744 55.1236C53.7744 55.5095 53.6318 55.8184 53.3386 56.0686C53.0429 56.3215 52.4986 56.4501 51.7199 56.4501C51.0741 56.4501 50.5299 56.3836 50.1011 56.2498C49.7133 56.1341 49.3356 55.9872 48.9715 55.8105L48.7825 55.7151L48.2759 57.3566L48.3984 57.4301C48.6469 57.5763 49.0048 57.7259 49.4939 57.8886C49.9428 58.0365 50.5168 58.1275 51.2019 58.159V60.3509H52.8959V58.0925C53.8216 57.9455 54.5243 57.6165 54.9863 57.1134C55.4763 56.577 55.7248 55.8683 55.7248 55.0038C55.7248 54.4718 55.632 54.0071 55.45 53.6239Z" fill="#2A2552"/>
<path d="M45 52.4978C45 47.5881 48.619 43.5404 53.3125 42.8929C52.882 42.8334 52.4462 42.7923 52 42.7923C46.6844 42.7923 42.375 47.1375 42.375 52.4978C42.375 57.858 46.6844 62.2033 52 62.2033C52.4462 62.2033 52.882 62.1621 53.3125 62.1026C48.619 61.456 45 57.4083 45 52.4978Z" fill="#A3D7E8"/>
<path d="M52 63.0783C46.2101 63.0783 41.5 58.3323 41.5 52.4978C41.5 46.6633 46.2101 41.9173 52 41.9173C57.7899 41.9173 62.5 46.6633 62.5 52.4978C62.5 58.3323 57.7899 63.0783 52 63.0783ZM52 43.6673C47.1753 43.6673 43.25 47.6284 43.25 52.4978C43.25 57.3671 47.1753 61.3283 52 61.3283C56.8247 61.3283 60.75 57.3671 60.75 52.4978C60.75 47.6284 56.8247 43.6673 52 43.6673Z" fill="#2A2552"/>
<path d="M73.5433 33.946C73.3706 33.946 73.2017 33.8948 73.058 33.799C72.9143 33.7032 72.8022 33.567 72.7358 33.4075C72.6693 33.2481 72.6516 33.0726 72.6847 32.9031C72.7179 32.7336 72.8004 32.5777 72.922 32.455L75.0238 30.3357C75.1042 30.2519 75.2004 30.1849 75.307 30.1387C75.4135 30.0924 75.5282 30.0678 75.6443 30.0663C75.7605 30.0649 75.8757 30.0865 75.9834 30.1301C76.0911 30.1736 76.189 30.2382 76.2715 30.3199C76.354 30.4017 76.4193 30.4991 76.4638 30.6064C76.5082 30.7137 76.5309 30.8288 76.5304 30.9449C76.5299 31.0611 76.5063 31.176 76.461 31.2829C76.4156 31.3898 76.3494 31.4867 76.2663 31.5677L74.1645 33.687C74.0833 33.7692 73.9865 33.8344 73.8799 33.8788C73.7732 33.9233 73.6588 33.9461 73.5433 33.946Z" fill="#A3D7E8"/>
<path d="M75.6453 33.946C75.5298 33.9461 75.4154 33.9233 75.3087 33.8788C75.2021 33.8344 75.1053 33.7692 75.0241 33.687L72.9223 31.5677C72.8392 31.4867 72.773 31.3898 72.7276 31.2829C72.6823 31.176 72.6587 31.0611 72.6582 30.9449C72.6577 30.8288 72.6804 30.7137 72.7248 30.6064C72.7693 30.4991 72.8346 30.4017 72.9171 30.3199C72.9996 30.2382 73.0975 30.1736 73.2052 30.1301C73.3129 30.0865 73.4282 30.0649 73.5443 30.0663C73.6604 30.0678 73.7751 30.0924 73.8816 30.1387C73.9882 30.1849 74.0845 30.2519 74.1648 30.3357L76.2666 32.455C76.3882 32.5777 76.4707 32.7336 76.5039 32.9031C76.537 33.0726 76.5193 33.2481 76.4529 33.4075C76.3864 33.567 76.2743 33.7032 76.1306 33.799C75.9869 33.8948 75.8181 33.946 75.6453 33.946Z" fill="#A3D7E8"/>
<path d="M30.0106 32.322C29.8379 32.322 29.669 32.2708 29.5253 32.175C29.3816 32.0792 29.2695 31.943 29.2031 31.7835C29.1366 31.6241 29.1189 31.4486 29.152 31.2791C29.1852 31.1096 29.2677 30.9537 29.3893 30.831L31.4438 28.759C31.5242 28.6752 31.6205 28.6082 31.727 28.5619C31.8335 28.5157 31.9482 28.4911 32.0644 28.4896C32.1805 28.4881 32.2958 28.5098 32.4034 28.5533C32.5111 28.5969 32.6091 28.6614 32.6915 28.7432C32.774 28.825 32.8394 28.9224 32.8838 29.0297C32.9283 29.137 32.9509 29.252 32.9504 29.3682C32.95 29.4843 32.9264 29.5992 32.881 29.7062C32.8357 29.8131 32.7695 29.9099 32.6863 29.991L30.6318 32.063C30.5506 32.1452 30.4539 32.2105 30.3472 32.255C30.2406 32.2994 30.1261 32.3222 30.0106 32.322Z" fill="#2A2552"/>
<path d="M32.0651 32.322C31.9496 32.3221 31.8352 32.2993 31.7285 32.2548C31.6219 32.2104 31.5251 32.1452 31.4439 32.063L29.3894 29.991C29.226 29.8262 29.1348 29.6033 29.1358 29.3713C29.1367 29.1393 29.2299 28.9171 29.3946 28.7537C29.5594 28.5904 29.7823 28.4991 30.0143 28.5001C30.2464 28.5011 30.4685 28.5942 30.6319 28.759L32.6864 30.831C32.808 30.9537 32.8905 31.1096 32.9237 31.2791C32.9568 31.4486 32.9391 31.6241 32.8726 31.7835C32.8062 31.943 32.6941 32.0792 32.5504 32.175C32.4067 32.2708 32.2378 32.322 32.0651 32.322Z" fill="#2A2552"/>
<path d="M34.7915 76.625C35.6 76.625 36.2554 75.9641 36.2554 75.1489C36.2554 74.3336 35.6 73.6728 34.7915 73.6728C33.983 73.6728 33.3276 74.3336 33.3276 75.1489C33.3276 75.9641 33.983 76.625 34.7915 76.625Z" fill="white"/>
<path d="M34.7915 77.5C33.5018 77.5 32.4526 76.4456 32.4526 75.1489C32.4526 73.8521 33.5018 72.7978 34.7915 72.7978C36.0813 72.7978 37.1295 73.8521 37.1295 75.1489C37.1295 76.4456 36.0813 77.5 34.7915 77.5ZM34.7915 74.5486C34.4669 74.5486 34.2026 74.8181 34.2026 75.1498C34.2026 75.4814 34.4669 75.75 34.7915 75.75C35.1161 75.75 35.3795 75.4805 35.3795 75.1489C35.3795 74.8173 35.1161 74.5486 34.7915 74.5486Z" fill="#A3D7E8"/>
</svg>
