<svg width="102" height="102" viewBox="0 0 102 102" fill="none" xmlns="http://www.w3.org/2000/svg">
<circle cx="51" cy="51" r="51" fill="white"/>
<path d="M37.2691 42.9139H31.0327C30.6192 42.9139 30.2227 43.0782 29.9303 43.3706C29.6379 43.6629 29.4736 44.0595 29.4736 44.473V50.7093C29.4736 51.1228 29.6379 51.5194 29.9303 51.8118C30.2227 52.1042 30.6192 52.2684 31.0327 52.2684H37.2691C37.6826 52.2684 38.0791 52.1042 38.3715 51.8118C38.6639 51.5194 38.8282 51.1228 38.8282 50.7093V44.473C38.8282 44.0595 38.6639 43.6629 38.3715 43.3706C38.0791 43.0782 37.6826 42.9139 37.2691 42.9139ZM37.2691 50.7093H31.0327V44.473H37.2691V50.7093Z" fill="#A3D7E8"/>
<path d="M48.1826 42.9139H41.9463C41.5328 42.9139 41.1362 43.0782 40.8439 43.3706C40.5515 43.6629 40.3872 44.0595 40.3872 44.473V50.7093C40.3872 51.1228 40.5515 51.5194 40.8439 51.8118C41.1362 52.1042 41.5328 52.2684 41.9463 52.2684H48.1826C48.5961 52.2684 48.9927 52.1042 49.2851 51.8118C49.5775 51.5194 49.7417 51.1228 49.7417 50.7093V44.473C49.7417 44.0595 49.5775 43.6629 49.2851 43.3706C48.9927 43.0782 48.5961 42.9139 48.1826 42.9139ZM48.1826 50.7093H41.9463V44.473H48.1826V50.7093Z" fill="#2A2552"/>
<path d="M52.8599 52.2684H59.0962C59.5097 52.2684 59.9063 52.1042 60.1987 51.8118C60.491 51.5194 60.6553 51.1228 60.6553 50.7093V44.473C60.6553 44.0595 60.491 43.6629 60.1987 43.3706C59.9063 43.0782 59.5097 42.9139 59.0962 42.9139H52.8599C52.4464 42.9139 52.0498 43.0782 51.7574 43.3706C51.465 43.6629 51.3008 44.0595 51.3008 44.473V50.7093C51.3008 51.1228 51.465 51.5194 51.7574 51.8118C52.0498 52.1042 52.4464 52.2684 52.8599 52.2684ZM52.8599 44.473H59.0962V50.7093H52.8599V44.473Z" fill="#A3D7E8"/>
<path d="M63.7734 52.2684H70.0098C70.4233 52.2684 70.8198 52.1042 71.1122 51.8118C71.4046 51.5194 71.5689 51.1228 71.5689 50.7093V44.473C71.5689 44.0595 71.4046 43.6629 71.1122 43.3706C70.8198 43.0782 70.4233 42.9139 70.0098 42.9139H63.7734C63.3599 42.9139 62.9634 43.0782 62.671 43.3706C62.3786 43.6629 62.2144 44.0595 62.2144 44.473V50.7093C62.2144 51.1228 62.3786 51.5194 62.671 51.8118C62.9634 52.1042 63.3599 52.2684 63.7734 52.2684ZM63.7734 44.473H70.0098V50.7093H63.7734V44.473Z" fill="#2A2552"/>
<path d="M48.1827 53.8275H41.9463C41.5328 53.8275 41.1363 53.9918 40.8439 54.2842C40.5515 54.5766 40.3872 54.9731 40.3872 55.3866V61.623C40.3872 62.0365 40.5515 62.433 40.8439 62.7254C41.1363 63.0178 41.5328 63.182 41.9463 63.182H48.1827C48.5962 63.182 48.9927 63.0178 49.2851 62.7254C49.5775 62.433 49.7418 62.0365 49.7418 61.623V55.3866C49.7418 54.9731 49.5775 54.5766 49.2851 54.2842C48.9927 53.9918 48.5962 53.8275 48.1827 53.8275ZM48.1827 61.623H41.9463V55.3866H48.1827V61.623ZM37.2691 64.7411H31.0327C30.6192 64.7411 30.2227 64.9054 29.9303 65.1978C29.6379 65.4902 29.4736 65.8867 29.4736 66.3002V72.5366C29.4736 72.9501 29.6379 73.3466 29.9303 73.639C30.2227 73.9314 30.6192 74.0957 31.0327 74.0957H37.2691C37.6826 74.0957 38.0791 73.9314 38.3715 73.639C38.6639 73.3466 38.8282 72.9501 38.8282 72.5366V66.3002C38.8282 65.8867 38.6639 65.4902 38.3715 65.1978C38.0791 64.9054 37.6826 64.7411 37.2691 64.7411ZM37.2691 72.5366H31.0327V66.3002H37.2691V72.5366Z" fill="#A3D7E8"/>
<path d="M48.1826 64.7411H41.9463C41.5328 64.7411 41.1362 64.9054 40.8439 65.1978C40.5515 65.4902 40.3872 65.8867 40.3872 66.3002V72.5366C40.3872 72.9501 40.5515 73.3466 40.8439 73.639C41.1362 73.9314 41.5328 74.0957 41.9463 74.0957H48.1826C48.5961 74.0957 48.9927 73.9314 49.2851 73.639C49.5775 73.3466 49.7417 72.9501 49.7417 72.5366V66.3002C49.7417 65.8867 49.5775 65.4902 49.2851 65.1978C48.9927 64.9054 48.5961 64.7411 48.1826 64.7411ZM48.1826 72.5366H41.9463V66.3002H48.1826V72.5366Z" fill="#2A2552"/>
<path d="M65.7307 59.3939C65.6144 59.3247 65.4821 59.2871 65.3469 59.2846C65.2116 59.2821 65.0781 59.315 64.9593 59.3798L62.6207 60.6548C62.4419 60.7551 62.3098 60.9219 62.2531 61.119C62.1963 61.3161 62.2196 61.5276 62.3177 61.7076C62.4158 61.8877 62.581 62.0218 62.7773 62.081C62.9737 62.1401 63.1855 62.1195 63.3667 62.0236L64.5528 61.3766V62.4025H66.1119V60.0639C66.1119 59.9287 66.0768 59.7958 66.01 59.6782C65.9432 59.5607 65.8469 59.4629 65.7307 59.3939Z" fill="#A3D7E8"/>
<path d="M52.8599 55.3866H70.0098V62.4025H71.5689V55.3866C71.5689 54.9731 71.4047 54.5766 71.1123 54.2842C70.8199 53.9918 70.4233 53.8275 70.0098 53.8275H52.8599C52.4464 53.8275 52.0498 53.9918 51.7574 54.2842C51.465 54.5766 51.3008 54.9731 51.3008 55.3866V72.5366C51.3008 72.9501 51.465 73.3466 51.7574 73.639C52.0498 73.9314 52.4464 74.0957 52.8599 74.0957H59.8758V72.5366H52.8599V55.3866Z" fill="#2A2552"/>
<path d="M59.4944 59.3939C59.3781 59.3247 59.2458 59.2871 59.1105 59.2846C58.9753 59.2821 58.8417 59.315 58.723 59.3798L56.3844 60.6548C56.2055 60.7551 56.0734 60.9219 56.0167 61.119C55.96 61.3161 55.9832 61.5276 56.0814 61.7076C56.1795 61.8877 56.3447 62.0218 56.541 62.081C56.7374 62.1401 56.9491 62.1195 57.1304 62.0236L58.3165 61.3766V67.8593C58.3163 68.0661 58.3983 68.2644 58.5444 68.4107C58.6905 68.557 58.8887 68.6393 59.0954 68.6394C59.3022 68.6396 59.5005 68.5576 59.6468 68.4115C59.7931 68.2654 59.8754 68.0672 59.8756 67.8605V60.0643C59.8756 59.9291 59.8405 59.7962 59.7737 59.6786C59.7068 59.5611 59.6106 59.4629 59.4944 59.3939Z" fill="#A3D7E8"/>
<path d="M76.5271 76.4343H64.0961L75.2381 65.2923C75.2521 65.2782 75.2603 65.2603 75.2732 65.2455L75.4665 65.0565V35.1185C75.4658 34.4985 75.2191 33.904 74.7807 33.4656C74.3423 33.0272 73.7479 32.7806 73.1279 32.7798H70.0097V32.0003C70.0097 31.7935 69.9275 31.5953 69.7814 31.4491C69.6352 31.3029 69.4369 31.2208 69.2301 31.2208C69.0234 31.2208 68.8251 31.3029 68.6789 31.4491C68.5327 31.5953 68.4506 31.7935 68.4506 32.0003V32.7798H65.3324V32.0003C65.3324 31.7935 65.2503 31.5953 65.1041 31.4491C64.9579 31.3029 64.7596 31.2208 64.5529 31.2208C64.3461 31.2208 64.1478 31.3029 64.0017 31.4491C63.8555 31.5953 63.7733 31.7935 63.7733 32.0003V32.7798H60.6552V32.0003C60.6552 31.7935 60.573 31.5953 60.4268 31.4491C60.2806 31.3029 60.0824 31.2208 59.8756 31.2208C59.6689 31.2208 59.4706 31.3029 59.3244 31.4491C59.1782 31.5953 59.0961 31.7935 59.0961 32.0003V32.7798H55.9779V32.0003C55.9779 31.7935 55.8958 31.5953 55.7496 31.4491C55.6034 31.3029 55.4051 31.2208 55.1984 31.2208C54.9916 31.2208 54.7933 31.3029 54.6471 31.4491C54.5009 31.5953 54.4188 31.7935 54.4188 32.0003V32.7798H51.3006V32.0003C51.3006 31.7935 51.2185 31.5953 51.0723 31.4491C50.9261 31.3029 50.7278 31.2208 50.5211 31.2208C50.3143 31.2208 50.1161 31.3029 49.9699 31.4491C49.8237 31.5953 49.7415 31.7935 49.7415 32.0003V32.7798H46.6234V32.0003C46.6234 31.7935 46.5412 31.5953 46.395 31.4491C46.2489 31.3029 46.0506 31.2208 45.8438 31.2208C45.6371 31.2208 45.4388 31.3029 45.2926 31.4491C45.1464 31.5953 45.0643 31.7935 45.0643 32.0003V32.7798H41.9461V32.0003C41.9461 31.7935 41.864 31.5953 41.7178 31.4491C41.5716 31.3029 41.3733 31.2208 41.1666 31.2208C40.9598 31.2208 40.7615 31.3029 40.6153 31.4491C40.4691 31.5953 40.387 31.7935 40.387 32.0003V32.7798H37.2688V32.0003C37.2688 31.7935 37.1867 31.5953 37.0405 31.4491C36.8943 31.3029 36.696 31.2208 36.4893 31.2208C36.2826 31.2208 36.0843 31.3029 35.9381 31.4491C35.7919 31.5953 35.7098 31.7935 35.7098 32.0003V32.7798H32.5916V32.0003C32.5916 31.7935 32.5095 31.5953 32.3633 31.4491C32.2171 31.3029 32.0188 31.2208 31.812 31.2208C31.6053 31.2208 31.407 31.3029 31.2608 31.4491C31.1146 31.5953 31.0325 31.7935 31.0325 32.0003V32.7798H27.9143C27.2943 32.7806 26.6999 33.0272 26.2615 33.4656C25.823 33.904 25.5764 34.4985 25.5757 35.1185V75.6547C25.5762 75.9205 25.6224 76.1842 25.7121 76.4343H24.5151C24.4042 76.4198 24.2915 76.4291 24.1845 76.4617C24.0775 76.4942 23.9787 76.5492 23.8946 76.623C23.8106 76.6968 23.7432 76.7877 23.6971 76.8895C23.651 76.9914 23.6271 77.102 23.6271 77.2138C23.6271 77.3257 23.651 77.4362 23.6971 77.5381C23.7432 77.64 23.8106 77.7309 23.8946 77.8047C23.9787 77.8784 24.0775 77.9334 24.1845 77.966C24.2915 77.9985 24.4042 78.0079 24.5151 77.9934H76.5267C76.6376 78.0079 76.7503 77.9985 76.8573 77.966C76.9643 77.9334 77.0631 77.8784 77.1472 77.8047C77.2312 77.7309 77.2986 77.64 77.3447 77.5381C77.3908 77.4362 77.4147 77.3257 77.4147 77.2138C77.4147 77.102 77.3908 76.9914 77.3447 76.8895C77.2986 76.7877 77.2312 76.6968 77.1472 76.623C77.0631 76.5492 76.9643 76.4942 76.8573 76.4617C76.7503 76.4291 76.638 76.4198 76.5271 76.4343ZM62.9938 75.0494V66.2991C62.9891 66.0977 63.0644 65.9027 63.2032 65.7568C63.342 65.6109 63.533 65.526 63.7344 65.5207H72.7584L62.9938 75.0494ZM27.1348 35.1185C27.1351 34.9118 27.2173 34.7137 27.3634 34.5676C27.5096 34.4215 27.7077 34.3392 27.9143 34.3389H31.0325V35.1185C31.0325 35.3252 31.1146 35.5235 31.2608 35.6697C31.407 35.8159 31.6053 35.898 31.812 35.898C32.0188 35.898 32.2171 35.8159 32.3633 35.6697C32.5095 35.5235 32.5916 35.3252 32.5916 35.1185V34.3389H35.7098V35.1185C35.7098 35.3252 35.7919 35.5235 35.9381 35.6697C36.0843 35.8159 36.2826 35.898 36.4893 35.898C36.696 35.898 36.8943 35.8159 37.0405 35.6697C37.1867 35.5235 37.2688 35.3252 37.2688 35.1185V34.3389H40.387V35.1185C40.387 35.3252 40.4691 35.5235 40.6153 35.6697C40.7615 35.8159 40.9598 35.898 41.1666 35.898C41.3733 35.898 41.5716 35.8159 41.7178 35.6697C41.864 35.5235 41.9461 35.3252 41.9461 35.1185V34.3389H45.0643V35.1185C45.0643 35.3252 45.1464 35.5235 45.2926 35.6697C45.4388 35.8159 45.6371 35.898 45.8438 35.898C46.0506 35.898 46.2489 35.8159 46.395 35.6697C46.5412 35.5235 46.6234 35.3252 46.6234 35.1185V34.3389H49.7415V35.1185C49.7415 35.3252 49.8237 35.5235 49.9699 35.6697C50.1161 35.8159 50.3143 35.898 50.5211 35.898C50.7278 35.898 50.9261 35.8159 51.0723 35.6697C51.2185 35.5235 51.3006 35.3252 51.3006 35.1185V34.3389H54.4188V35.1185C54.4188 35.3252 54.5009 35.5235 54.6471 35.6697C54.7933 35.8159 54.9916 35.898 55.1984 35.898C55.4051 35.898 55.6034 35.8159 55.7496 35.6697C55.8958 35.5235 55.9779 35.3252 55.9779 35.1185V34.3389H59.0961V35.1185C59.0961 35.3252 59.1782 35.5235 59.3244 35.6697C59.4706 35.8159 59.6689 35.898 59.8756 35.898C60.0824 35.898 60.2806 35.8159 60.4268 35.6697C60.573 35.5235 60.6552 35.3252 60.6552 35.1185V34.3389H63.7733V35.1185C63.7733 35.3252 63.8555 35.5235 64.0017 35.6697C64.1478 35.8159 64.3461 35.898 64.5529 35.898C64.7596 35.898 64.9579 35.8159 65.1041 35.6697C65.2503 35.5235 65.3324 35.3252 65.3324 35.1185V34.3389H68.4506V35.1185C68.4506 35.3252 68.5327 35.5235 68.6789 35.6697C68.8251 35.8159 69.0234 35.898 69.2301 35.898C69.4369 35.898 69.6352 35.8159 69.7814 35.6697C69.9275 35.5235 70.0097 35.3252 70.0097 35.1185V34.3389H73.1279C73.3345 34.3392 73.5326 34.4215 73.6787 34.5676C73.8249 34.7137 73.9071 34.9118 73.9074 35.1185V39.0162H27.1348V35.1185ZM27.9143 76.4343C27.7077 76.434 27.5096 76.3518 27.3634 76.2056C27.2173 76.0595 27.1351 75.8614 27.1348 75.6547V40.5753H73.9074V63.9616H63.7344C63.1197 63.9673 62.5324 64.2165 62.1013 64.6546C61.6702 65.0928 61.4304 65.684 61.4347 66.2987V76.4343H27.9143ZM40.387 22.3386C40.6183 22.3386 40.8444 22.2701 41.0367 22.1416C41.2289 22.0131 41.3788 21.8305 41.4673 21.6168C41.5558 21.4031 41.579 21.168 41.5339 20.9412C41.4887 20.7144 41.3774 20.506 41.2138 20.3425C41.0503 20.179 40.842 20.0676 40.6151 20.0225C40.3883 19.9774 40.1532 20.0005 39.9395 20.089C39.7259 20.1775 39.5433 20.3274 39.4148 20.5197C39.2863 20.712 39.2177 20.938 39.2177 21.1693C39.218 21.4793 39.3413 21.7766 39.5605 21.9958C39.7798 22.215 40.077 22.3383 40.387 22.3386ZM40.387 20.5847C40.5027 20.5847 40.6157 20.6189 40.7118 20.6832C40.808 20.7474 40.8829 20.8387 40.9272 20.9456C40.9714 21.0524 40.983 21.17 40.9604 21.2834C40.9379 21.3968 40.8822 21.501 40.8004 21.5827C40.7187 21.6645 40.6145 21.7202 40.5011 21.7427C40.3877 21.7653 40.2701 21.7537 40.1633 21.7095C40.0564 21.6652 39.9651 21.5903 39.9009 21.4941C39.8366 21.398 39.8024 21.285 39.8024 21.1693C39.8025 21.0143 39.8641 20.8656 39.9737 20.756C40.0833 20.6464 40.232 20.5848 40.387 20.5847ZM78.1949 43.0764C78.0407 43.0764 77.89 43.1222 77.7618 43.2078C77.6336 43.2935 77.5337 43.4152 77.4747 43.5577C77.4157 43.7001 77.4003 43.8569 77.4303 44.0081C77.4604 44.1593 77.5346 44.2982 77.6437 44.4072C77.7527 44.5162 77.8916 44.5905 78.0428 44.6206C78.194 44.6506 78.3508 44.6352 78.4932 44.5762C78.6357 44.5172 78.7574 44.4173 78.8431 44.2891C78.9287 44.1609 78.9744 44.0102 78.9744 43.856C78.9742 43.6493 78.892 43.4511 78.7459 43.305C78.5997 43.1588 78.4016 43.0767 78.1949 43.0764ZM78.1949 44.2458C78.1178 44.2458 78.0424 44.2229 77.9783 44.1801C77.9143 44.1372 77.8643 44.0764 77.8348 44.0051C77.8053 43.9339 77.7976 43.8556 77.8126 43.7799C77.8276 43.7043 77.8648 43.6349 77.9193 43.5804C77.9738 43.5259 78.0432 43.4887 78.1189 43.4737C78.1945 43.4587 78.2728 43.4664 78.3441 43.4959C78.4153 43.5254 78.4761 43.5753 78.519 43.6394C78.5618 43.7035 78.5847 43.7789 78.5847 43.856C78.5846 43.9593 78.5435 44.0584 78.4704 44.1315C78.3973 44.2046 78.2982 44.2457 78.1949 44.2458ZM20.7795 24.9057C20.6254 24.9057 20.4746 24.9514 20.3465 25.037C20.2183 25.1227 20.1183 25.2445 20.0593 25.3869C20.0003 25.5293 19.9849 25.6861 20.015 25.8373C20.0451 25.9885 20.1193 26.1274 20.2283 26.2364C20.3373 26.3455 20.4762 26.4197 20.6275 26.4498C20.7787 26.4799 20.9354 26.4644 21.0779 26.4054C21.2203 26.3464 21.3421 26.2465 21.4277 26.1183C21.5134 25.9901 21.5591 25.8394 21.5591 25.6852C21.5589 25.4785 21.4767 25.2804 21.3305 25.1342C21.1844 24.9881 20.9862 24.9059 20.7795 24.9057ZM20.7795 26.075C20.7025 26.075 20.6271 26.0521 20.563 26.0093C20.4989 25.9665 20.4489 25.9056 20.4194 25.8344C20.3899 25.7632 20.3822 25.6848 20.3973 25.6092C20.4123 25.5336 20.4494 25.4641 20.5039 25.4096C20.5584 25.3551 20.6279 25.318 20.7035 25.3029C20.7791 25.2879 20.8575 25.2956 20.9287 25.3251C20.9999 25.3546 21.0608 25.4046 21.1036 25.4687C21.1465 25.5328 21.1693 25.6081 21.1693 25.6852C21.1692 25.7886 21.1281 25.8876 21.055 25.9607C20.982 26.0338 20.8829 26.0749 20.7795 26.075ZM66.112 25.6852C65.9578 25.6852 65.8071 25.7309 65.6789 25.8166C65.5507 25.9022 65.4508 26.024 65.3918 26.1664C65.3328 26.3089 65.3173 26.4656 65.3474 26.6168C65.3775 26.7681 65.4517 26.907 65.5607 27.016C65.6698 27.125 65.8087 27.1992 65.9599 27.2293C66.1111 27.2594 66.2678 27.244 66.4103 27.185C66.5527 27.126 66.6745 27.026 66.7601 26.8978C66.8458 26.7697 66.8915 26.6189 66.8915 26.4648C66.8913 26.2581 66.8091 26.0599 66.663 25.9138C66.5168 25.7676 66.3186 25.6854 66.112 25.6852ZM66.112 26.8545C66.0349 26.8545 65.9595 26.8317 65.8954 26.7888C65.8313 26.746 65.7814 26.6851 65.7519 26.6139C65.7224 26.5427 65.7146 26.4643 65.7297 26.3887C65.7447 26.3131 65.7818 26.2437 65.8364 26.1891C65.8909 26.1346 65.9603 26.0975 66.0359 26.0825C66.1115 26.0674 66.1899 26.0752 66.2611 26.1047C66.3323 26.1342 66.3932 26.1841 66.436 26.2482C66.4789 26.3123 66.5017 26.3877 66.5017 26.4648C66.5016 26.5681 66.4605 26.6672 66.3875 26.7403C66.3144 26.8133 66.2153 26.8544 66.112 26.8545ZM31.812 28.8821C31.812 28.7279 31.7663 28.5772 31.6807 28.449C31.595 28.3208 31.4733 28.2209 31.3308 28.1619C31.1884 28.1029 31.0316 28.0875 30.8804 28.1176C30.7292 28.1476 30.5903 28.2219 30.4813 28.3309C30.3723 28.4399 30.298 28.5788 30.2679 28.73C30.2378 28.8813 30.2533 29.038 30.3123 29.1804C30.3713 29.3229 30.4712 29.4446 30.5994 29.5303C30.7276 29.6159 30.8783 29.6617 31.0325 29.6617C31.2392 29.6615 31.4373 29.5793 31.5835 29.4331C31.7296 29.287 31.8118 29.0888 31.812 28.8821ZM30.6427 28.8821C30.6427 28.805 30.6656 28.7297 30.7084 28.6656C30.7512 28.6015 30.8121 28.5515 30.8833 28.522C30.9546 28.4925 31.0329 28.4848 31.1085 28.4998C31.1841 28.5149 31.2536 28.552 31.3081 28.6065C31.3626 28.661 31.3997 28.7305 31.4148 28.8061C31.4298 28.8817 31.4221 28.9601 31.3926 29.0313C31.3631 29.1025 31.3131 29.1634 31.249 29.2062C31.1849 29.249 31.1096 29.2719 31.0325 29.2719C30.9292 29.2718 30.8301 29.2307 30.757 29.1576C30.6839 29.0845 30.6428 28.9855 30.6427 28.8821Z" fill="#2A2552"/>
<path d="M22.0243 45.6466L22.6039 44.8846L22.2379 44.6772L21.8657 45.5308H21.8536L21.4755 44.6831L21.1033 44.8967L21.6767 45.6408V45.6528L20.7798 45.5371V45.9518L21.6825 45.836V45.8481L21.1033 46.5918L21.4506 46.8116L21.8474 45.9518H21.8595L22.2254 46.8054L22.6098 46.586L22.0243 45.854V45.8419L22.945 45.9518V45.5371L22.0243 45.6591V45.6466ZM79.7694 21.229L79.4358 21.6573L79.6361 21.784L79.8645 21.2886H79.8711L80.082 21.7801L80.3034 21.6538L79.9663 21.2325V21.2254L80.4963 21.2886V21.0497L79.9663 21.1198V21.1128L80.2999 20.6739L80.089 20.5546L79.875 21.0461H79.868L79.6501 20.5582L79.4358 20.6809L79.7659 21.1097V21.1167L79.2495 21.0497V21.2886L79.7694 21.2219V21.229ZM81.5581 33.4955V33.0885L80.655 33.2082V33.1965L81.2237 32.4485L80.8647 32.2455L80.4998 33.0827H80.4878L80.1171 32.2513L79.7515 32.4606L80.3143 33.1907V33.2024L79.4346 33.0885V33.4955L80.3202 33.382V33.3937L79.7515 34.1234L80.0925 34.3389L80.4819 33.4955H80.4936L80.8526 34.3331L81.2295 34.1175L80.655 33.3996V33.3879L81.5581 33.4955ZM52.9968 27.2852L53.4871 26.6402L53.1776 26.4648L52.8631 27.187H52.8526L52.5326 26.4698L52.2176 26.6507L52.7029 27.2802V27.2903L51.944 27.1925V27.5433L52.7079 27.445V27.4556L52.2176 28.085L52.5115 28.271L52.8475 27.5433H52.8576L53.1671 28.2655L53.4922 28.08L52.9968 27.4606V27.4501L53.7759 27.5433V27.1925L52.9968 27.2954V27.2852Z" fill="#A3D7E8"/>
</svg>
