<svg width="102" height="102" viewBox="0 0 102 102" fill="none" xmlns="http://www.w3.org/2000/svg">
<circle cx="51" cy="51" r="51" fill="white"/>
<path d="M53.4565 23.3541C53.7004 23.3541 53.9388 23.2818 54.1416 23.1463C54.3444 23.0108 54.5025 22.8182 54.5958 22.5928C54.6891 22.3675 54.7135 22.1196 54.666 21.8804C54.6184 21.6412 54.5009 21.4214 54.3285 21.249C54.156 21.0765 53.9363 20.9591 53.6971 20.9115C53.4579 20.8639 53.21 20.8884 52.9846 20.9817C52.7593 21.075 52.5667 21.2331 52.4312 21.4359C52.2957 21.6386 52.2234 21.8771 52.2234 22.1209C52.2238 22.4479 52.3538 22.7613 52.585 22.9925C52.8162 23.2237 53.1296 23.3537 53.4565 23.3541ZM53.4565 21.5044C53.5785 21.5044 53.6977 21.5405 53.7991 21.6083C53.9005 21.676 53.9795 21.7723 54.0262 21.885C54.0728 21.9977 54.085 22.1216 54.0612 22.2412C54.0375 22.3608 53.9787 22.4707 53.8925 22.5569C53.8063 22.6432 53.6964 22.7019 53.5768 22.7257C53.4572 22.7495 53.3332 22.7372 53.2206 22.6906C53.1079 22.6439 53.0116 22.5649 52.9439 22.4635C52.8761 22.3621 52.84 22.2429 52.84 22.1209C52.8401 21.9575 52.9051 21.8007 53.0207 21.6851C53.1363 21.5696 53.2931 21.5045 53.4565 21.5044ZM81.5327 44.1288C81.3701 44.1288 81.2112 44.1771 81.076 44.2674C80.9408 44.3577 80.8354 44.4861 80.7732 44.6363C80.711 44.7865 80.6947 44.9518 80.7264 45.1113C80.7581 45.2708 80.8364 45.4173 80.9514 45.5322C81.0664 45.6472 81.2129 45.7255 81.3723 45.7572C81.5318 45.7889 81.6971 45.7727 81.8473 45.7104C81.9975 45.6482 82.1259 45.5428 82.2162 45.4077C82.3066 45.2725 82.3548 45.1135 82.3548 44.9509C82.3545 44.733 82.2679 44.524 82.1137 44.3699C81.9596 44.2158 81.7507 44.1291 81.5327 44.1288ZM81.5327 45.362C81.4514 45.362 81.3719 45.3379 81.3043 45.2927C81.2367 45.2475 81.1841 45.1833 81.1529 45.1082C81.1218 45.0331 81.1137 44.9505 81.1296 44.8707C81.1454 44.791 81.1846 44.7178 81.2421 44.6603C81.2995 44.6028 81.3728 44.5636 81.4525 44.5478C81.5322 44.5319 81.6149 44.5401 81.69 44.5712C81.7651 44.6023 81.8293 44.655 81.8745 44.7226C81.9196 44.7902 81.9437 44.8696 81.9437 44.9509C81.9436 45.0599 81.9003 45.1644 81.8232 45.2415C81.7462 45.3185 81.6417 45.3619 81.5327 45.362ZM65.2725 17C65.1099 17 64.951 17.0482 64.8158 17.1385C64.6806 17.2289 64.5753 17.3573 64.513 17.5075C64.4508 17.6577 64.4345 17.823 64.4662 17.9825C64.498 18.1419 64.5763 18.2884 64.6912 18.4034C64.8062 18.5184 64.9527 18.5967 65.1122 18.6284C65.2716 18.6601 65.4369 18.6438 65.5871 18.5816C65.7374 18.5194 65.8657 18.414 65.9561 18.2788C66.0464 18.1436 66.0946 17.9847 66.0946 17.8221C66.0944 17.6041 66.0077 17.3952 65.8536 17.2411C65.6995 17.0869 65.4905 17.0002 65.2725 17ZM65.2725 18.2331C65.1912 18.2331 65.1118 18.209 65.0442 18.1639C64.9766 18.1187 64.9239 18.0545 64.8928 17.9794C64.8617 17.9043 64.8535 17.8216 64.8694 17.7419C64.8853 17.6622 64.9244 17.5889 64.9819 17.5314C65.0394 17.4739 65.1126 17.4348 65.1924 17.4189C65.2721 17.4031 65.3547 17.4112 65.4298 17.4423C65.5049 17.4734 65.5691 17.5261 65.6143 17.5937C65.6595 17.6613 65.6836 17.7408 65.6836 17.8221C65.6835 17.9311 65.6401 18.0356 65.5631 18.1126C65.486 18.1897 65.3815 18.233 65.2725 18.2331ZM81.5327 19.8773C81.3701 19.8773 81.2112 19.9255 81.076 20.0158C80.9408 20.1062 80.8354 20.2346 80.7732 20.3848C80.711 20.535 80.6947 20.7003 80.7264 20.8598C80.7581 21.0192 80.8364 21.1657 80.9514 21.2807C81.0664 21.3957 81.2129 21.474 81.3723 21.5057C81.5318 21.5374 81.6971 21.5211 81.8473 21.4589C81.9975 21.3967 82.1259 21.2913 82.2162 21.1561C82.3066 21.0209 82.3548 20.862 82.3548 20.6994C82.3545 20.4814 82.2679 20.2725 82.1137 20.1184C81.9596 19.9642 81.7507 19.8776 81.5327 19.8773ZM81.5327 21.1104C81.4514 21.1104 81.3719 21.0863 81.3043 21.0412C81.2367 20.996 81.1841 20.9318 81.1529 20.8567C81.1218 20.7816 81.1137 20.6989 81.1296 20.6192C81.1454 20.5395 81.1846 20.4662 81.2421 20.4087C81.2995 20.3513 81.3728 20.3121 81.4525 20.2962C81.5322 20.2804 81.6149 20.2885 81.69 20.3196C81.7651 20.3507 81.8293 20.4034 81.8745 20.471C81.9196 20.5386 81.9437 20.6181 81.9437 20.6994C81.9436 20.8084 81.9003 20.9129 81.8232 20.9899C81.7462 21.067 81.6417 21.1103 81.5327 21.1104ZM31.5685 28.9439C31.5685 28.7813 31.5203 28.6223 31.4299 28.4872C31.3396 28.352 31.2112 28.2466 31.061 28.1844C30.9108 28.1222 30.7455 28.1059 30.586 28.1376C30.4266 28.1693 30.2801 28.2476 30.1651 28.3626C30.0501 28.4776 29.9718 28.624 29.9401 28.7835C29.9084 28.943 29.9247 29.1083 29.9869 29.2585C30.0491 29.4087 30.1545 29.5371 30.2897 29.6274C30.4249 29.7178 30.5838 29.766 30.7464 29.766C30.9644 29.7657 31.1733 29.679 31.3274 29.5249C31.4815 29.3708 31.5682 29.1618 31.5685 28.9439ZM30.3354 28.9439C30.3354 28.8626 30.3595 28.7831 30.4046 28.7155C30.4498 28.6479 30.514 28.5952 30.5891 28.5641C30.6642 28.533 30.7469 28.5249 30.8266 28.5407C30.9063 28.5566 30.9796 28.5957 31.0371 28.6532C31.0945 28.7107 31.1337 28.784 31.1495 28.8637C31.1654 28.9434 31.1573 29.0261 31.1262 29.1012C31.095 29.1763 31.0424 29.2405 30.9748 29.2857C30.9072 29.3308 30.8277 29.3549 30.7464 29.3549C30.6374 29.3548 30.5329 29.3115 30.4559 29.2344C30.3788 29.1574 30.3355 29.0529 30.3354 28.9439Z" fill="#2A2552"/>
<path d="M20.5381 34.8167L21.1493 34.0131L20.7634 33.7944L20.3712 34.6946H20.3581L19.9598 33.8006L19.5668 34.0258L20.1719 34.8105V34.8232L19.2261 34.7011V35.1381L20.178 35.0164V35.0292L19.5668 35.8134L19.9335 36.0453L20.3519 35.1381H20.3643L20.7502 36.0387L21.1555 35.8073L20.5381 35.0353V35.0226L21.509 35.1381V34.7011L20.5381 34.8294V34.8167Z" fill="#A3D7E8"/>
<path d="M25.9141 19.9402L25.5622 20.3919L25.7735 20.5255L26.0143 20.0031H26.0213L26.2437 20.5218L26.4772 20.3882L26.1216 19.9439V19.9365L26.6806 20.0031V19.7515L26.1216 19.8255V19.8181L26.4735 19.3553L26.2511 19.2291L26.0254 19.7474H26.018L25.7883 19.2328L25.5622 19.3623L25.9104 19.8144V19.8218L25.3657 19.7515V20.0031L25.9141 19.9328V19.9402Z" fill="#A3D7E8"/>
<path d="M74.0914 27.4902V27.0615L73.1394 27.1877V27.175L73.7387 26.3866L73.3602 26.172L72.9754 27.0549H72.9627L72.5718 26.1782L72.1866 26.3993L72.7798 27.1688V27.1815L71.8521 27.0615V27.4902L72.7859 27.3706V27.3834L72.1866 28.1528L72.5459 28.3802L72.9565 27.4902H72.9689L73.3474 28.3736L73.7449 28.1467L73.1394 27.3895V27.3768L74.0914 27.4902Z" fill="#A3D7E8"/>
<path d="M65.8285 34.8327L66.3456 34.1524L66.0188 33.9674L65.6871 34.7291H65.676L65.3389 33.9728L65.0064 34.1635L65.5182 34.8273V34.838L64.7183 34.7348V35.1048L65.5235 35.0012V35.0123L65.0064 35.6761L65.3167 35.8722L65.6706 35.1048H65.6813L66.0077 35.8664L66.3509 35.6708L65.8285 35.0176V35.0065L66.6498 35.1048V34.7348L65.8285 34.8434V34.8327Z" fill="#A3D7E8"/>
<path d="M40.3646 19.1419L40.8817 18.4621L40.5553 18.2767L40.2232 19.0384H40.2121L39.8751 18.282L39.5429 18.4728L40.0547 19.1366V19.1477L39.2544 19.0441V19.4141L40.06 19.3109V19.3216L39.5429 19.9854L39.8529 20.1815L40.2072 19.4141H40.2175L40.5442 20.1757L40.8871 19.9801L40.3646 19.3269V19.3162L41.1863 19.4141V19.0441L40.3646 19.153V19.1419Z" fill="#A3D7E8"/>
<path d="M65.0291 79.8896H61.6143C61.4076 79.9061 61.2148 79.9999 61.0742 80.1523C60.9335 80.3046 60.8554 80.5043 60.8554 80.7117C60.8554 80.919 60.9335 81.1187 61.0742 81.2711C61.2148 81.4234 61.4076 81.5172 61.6143 81.5337H65.0291C65.2358 81.5172 65.4286 81.4234 65.5693 81.2711C65.7099 81.1187 65.788 80.919 65.788 80.7117C65.788 80.5043 65.7099 80.3046 65.5693 80.1523C65.4286 79.9999 65.2358 79.9061 65.0291 79.8896ZM40.3666 79.8896H36.9517C36.7451 79.9061 36.5522 79.9999 36.4116 80.1523C36.271 80.3046 36.1929 80.5043 36.1929 80.7117C36.1929 80.919 36.271 81.1187 36.4116 81.2711C36.5522 81.4234 36.7451 81.5172 36.9517 81.5337H40.3666C40.5732 81.5172 40.7661 81.4234 40.9067 81.2711C41.0473 81.1187 41.1254 80.919 41.1254 80.7117C41.1254 80.5043 41.0473 80.3046 40.9067 80.1523C40.7661 79.9999 40.5732 79.9061 40.3666 79.8896ZM59.2113 79.8896H42.7696C42.5515 79.8896 42.3424 79.9762 42.1883 80.1304C42.0341 80.2845 41.9475 80.4936 41.9475 80.7117C41.9475 80.9297 42.0341 81.1388 42.1883 81.293C42.3424 81.4471 42.5515 81.5337 42.7696 81.5337H49.3216V82.3558H46.0579C45.8399 82.3558 45.6308 82.4424 45.4766 82.5966C45.3224 82.7508 45.2358 82.9599 45.2358 83.1779C45.2358 83.3959 45.3224 83.605 45.4766 83.7592C45.6308 83.9134 45.8399 84 46.0579 84H56.334C56.552 84 56.7611 83.9134 56.9153 83.7592C57.0695 83.605 57.1561 83.3959 57.1561 83.1779C57.1561 82.9599 57.0695 82.7508 56.9153 82.5966C56.7611 82.4424 56.552 82.3558 56.334 82.3558H52.6593V81.5337H59.2113C59.4293 81.5337 59.6384 81.4471 59.7926 81.293C59.9468 81.1388 60.0334 80.9297 60.0334 80.7117C60.0334 80.4936 59.9468 80.2845 59.7926 80.1304C59.6384 79.9762 59.4293 79.8896 59.2113 79.8896Z" fill="#A3D7E8"/>
<path d="M41.9845 45.2203C42.1387 45.3739 42.3476 45.4601 42.5654 45.4599C42.7831 45.4597 42.9919 45.3731 43.1458 45.2191C43.2998 45.0652 43.3864 44.8564 43.3866 44.6387C43.3868 44.421 43.3006 44.212 43.1469 44.0578L35.885 36.7961C35.7308 36.6424 35.5219 36.5562 35.3041 36.5564C35.0864 36.5566 34.8776 36.6432 34.7237 36.7972C34.5697 36.9512 34.4831 37.1599 34.4829 37.3776C34.4827 37.5954 34.5689 37.8043 34.7226 37.9586L41.9845 45.2203ZM57.3632 41.6246C57.5813 41.6246 57.7904 41.538 57.9445 41.3838C58.0987 41.2297 58.1853 41.0206 58.1853 40.8025V30.6635C58.1853 30.4455 58.0987 30.2364 57.9445 30.0822C57.7904 29.9281 57.5813 29.8415 57.3632 29.8415C57.1452 29.8415 56.9361 29.9281 56.7819 30.0822C56.6278 30.2364 56.5412 30.4455 56.5412 30.6635V40.8025C56.5412 41.0206 56.6278 41.2297 56.782 41.3838C56.9361 41.538 57.1452 41.6246 57.3632 41.6246Z" fill="#2A2552"/>
<path d="M46.3106 36.5013C46.3368 36.606 46.3833 36.7046 46.4476 36.7914C46.5119 36.8781 46.5926 36.9514 46.6851 37.0069C46.7777 37.0625 46.8803 37.0992 46.9871 37.1151C47.0939 37.1311 47.2028 37.1258 47.3075 37.0996C47.4123 37.0734 47.5108 37.0269 47.5976 36.9626C47.6843 36.8983 47.7576 36.8176 47.8131 36.7251C47.8687 36.6325 47.9055 36.5299 47.9214 36.4231C47.9373 36.3163 47.932 36.2074 47.9058 36.1027L45.4396 26.2377C45.4134 26.1329 45.3668 26.0344 45.3026 25.9476C45.2383 25.8608 45.1576 25.7876 45.065 25.732C44.9724 25.6765 44.8698 25.6397 44.763 25.6238C44.6563 25.6079 44.5474 25.6132 44.4426 25.6394C44.3379 25.6655 44.2393 25.7121 44.1526 25.7763C44.0658 25.8406 43.9926 25.9213 43.937 26.0139C43.8815 26.1065 43.8447 26.2091 43.8288 26.3159C43.8129 26.4226 43.8182 26.5315 43.8443 26.6363L46.3106 36.5013Z" fill="#A3D7E8"/>
<path d="M78.4156 76.6012H58.3304C60.1123 75.7473 61.706 74.5465 63.0181 73.069L65.7084 70.1031C65.7242 70.0858 65.7413 70.0696 65.7555 70.0512L67.0928 68.5768C67.566 68.1037 67.9028 67.5117 68.0679 66.8632C68.233 66.2147 68.2203 65.5338 68.031 64.8919C67.8417 64.2501 67.483 63.6712 66.9924 63.216C66.5019 62.7609 65.8977 62.4464 65.2435 62.3057C65.3752 61.8388 65.4038 61.3488 65.3273 60.8697C65.2507 60.3907 65.0709 59.934 64.8003 59.5314C64.5296 59.1287 64.1746 58.7898 63.7599 58.5381C63.3452 58.2863 62.8807 58.1278 62.3986 58.0735C62.5315 57.7049 62.6005 57.3162 62.6027 56.9243C62.603 56.0672 62.3066 55.2365 61.7639 54.5731C61.2212 53.9097 60.4657 53.4546 59.6255 53.2851L64.0883 48.8223C64.4379 48.4732 64.7145 48.0581 64.902 47.601C65.0894 47.1439 65.184 46.6541 65.1802 46.1601C65.1763 45.6661 65.0742 45.1778 64.8797 44.7237C64.6852 44.2696 64.4022 43.8587 64.0472 43.5151C63.6922 43.1715 63.2724 42.9021 62.8122 42.7224C62.352 42.5428 61.8606 42.4566 61.3668 42.4688C60.8729 42.4811 60.3864 42.5915 59.9357 42.7938C59.485 42.996 59.079 43.286 58.7415 43.6467C53.8564 48.8645 47.7826 54.79 45.3858 55.7731C43.9889 56.3471 43.6493 55.9024 42.572 54.1129C41.821 52.7249 40.8235 51.4852 39.6284 50.4546C38.2082 49.3012 36.5348 49.2671 35.1483 50.3645C33.5796 51.6187 33.354 53.7464 34.6016 55.5407C37.181 59.2276 37.1634 60.9103 37.1457 62.5372C37.0625 70.3269 40.6151 74.5502 44.4307 76.6012H23.5649C23.448 76.5859 23.3291 76.5958 23.2162 76.6301C23.1034 76.6644 22.9992 76.7224 22.9105 76.8002C22.8219 76.878 22.7509 76.9739 22.7022 77.0813C22.6536 77.1888 22.6284 77.3054 22.6284 77.4233C22.6284 77.5412 22.6536 77.6578 22.7022 77.7653C22.7509 77.8727 22.8219 77.9686 22.9105 78.0464C22.9992 78.1242 23.1034 78.1822 23.2162 78.2165C23.3291 78.2508 23.448 78.2607 23.5649 78.2454H78.4156C78.5325 78.2607 78.6514 78.2508 78.7642 78.2165C78.8771 78.1822 78.9813 78.1242 79.0699 78.0464C79.1586 77.9686 79.2296 77.8727 79.2782 77.7653C79.3269 77.6578 79.352 77.5412 79.352 77.4233C79.352 77.3054 79.3269 77.1888 79.2782 77.0813C79.2296 76.9739 79.1586 76.878 79.0699 76.8002C78.9813 76.7224 78.8771 76.6644 78.7642 76.6301C78.6514 76.5958 78.5325 76.5859 78.4156 76.6012ZM64.4632 63.8659C64.7359 63.8654 65.006 63.919 65.2578 64.0236C65.5097 64.1282 65.7382 64.2817 65.9304 64.4753C66.1243 64.6715 66.2775 64.9041 66.3812 65.1598C66.4849 65.4155 66.5369 65.6891 66.5343 65.965C66.5318 66.2409 66.4746 66.5136 66.3662 66.7673C66.2578 67.021 66.1003 67.2507 65.9027 67.4433L64.6007 68.8781C64.2516 69.043 63.8603 69.0971 63.4796 69.0329C63.0988 68.9688 62.7469 68.7896 62.471 68.5194C62.4457 68.4909 62.4196 68.464 62.3963 68.4408C62.0658 68.1119 61.8673 67.6732 61.8386 67.2078C61.8099 66.7423 61.9529 66.2825 62.2406 65.9155L64.2808 63.8753C64.344 63.8698 64.4054 63.8659 64.4632 63.8659ZM63.222 60.1902C63.5259 60.4922 63.7047 60.8977 63.7227 61.3258C63.7407 61.7538 63.5966 62.1729 63.3192 62.4994C63.2854 62.5314 63.2545 62.5663 63.2266 62.6037C63.2245 62.6065 63.2217 62.6087 63.2196 62.6115L60.8588 64.9723C60.5239 65.0925 60.1621 65.1163 59.8144 65.0409C59.4667 64.9656 59.1471 64.7942 58.892 64.5463C58.8613 64.5119 58.8286 64.4793 58.7941 64.4488C58.4703 64.113 58.28 63.6708 58.2588 63.2048C58.2376 62.7389 58.3869 62.2811 58.6789 61.9174C59.006 61.6607 60.3863 60.574 61.1178 59.9454C61.4453 59.7445 61.8307 59.6594 62.2123 59.7038C62.5939 59.7482 62.9495 59.9195 63.222 60.1902ZM60.3492 55.4572C60.5427 55.6493 60.6962 55.8779 60.8008 56.1297C60.9054 56.3816 60.959 56.6517 60.9585 56.9243C60.9045 57.5919 60.5951 58.2129 60.0947 58.658C59.5918 59.0932 58.5106 59.9592 57.714 60.5845C57.3738 60.6815 57.0138 60.6853 56.6716 60.5954C56.3295 60.5056 56.0177 60.3254 55.7691 60.0738L55.7141 60.0192C55.3403 59.6446 55.1304 59.137 55.1304 58.6079C55.1304 58.0787 55.3403 57.5711 55.7141 57.1965L57.6455 55.265C58.0438 54.9661 58.5365 54.8209 59.0332 54.8562C59.5299 54.8915 59.9972 55.1049 60.3492 55.4572ZM50.1253 76.5882C48.0089 76.4104 45.9695 75.711 44.1894 74.5526C44.318 74.5617 44.4469 74.5703 44.5794 74.5703C44.6938 74.5703 44.8106 74.5667 44.9283 74.5594C46.9758 74.4298 48.8629 73.1806 50.5371 70.8468C50.6637 70.6696 50.7148 70.4495 50.6792 70.2347C50.6437 70.0199 50.5243 69.828 50.3474 69.701C50.1705 69.5741 49.9505 69.5225 49.7356 69.5576C49.5208 69.5927 49.3286 69.7116 49.2013 69.8883C47.8325 71.7966 46.3645 72.8157 44.8375 72.9177C42.7028 73.0574 41.0643 71.3526 41.0398 71.3269C41.0034 71.2882 40.9633 71.2532 40.9202 71.2222C39.632 69.1937 38.7487 66.4052 38.7899 62.5549C38.8132 60.3805 38.6189 58.4144 35.9503 54.6002C35.3338 53.7135 35.164 52.4571 36.1719 51.6514C36.9631 51.025 37.7547 51.0505 38.592 51.7307C39.6375 52.6429 40.5088 53.7373 41.1634 54.9607C41.547 55.6735 42.0279 56.3296 42.5921 56.91C42.6078 56.9329 42.6247 56.955 42.6426 56.9761C42.7104 57.0484 44.2784 58.7716 42.682 61.276C42.5659 61.4599 42.5273 61.6822 42.5748 61.8944C42.6222 62.1066 42.7518 62.2913 42.9351 62.4082C43.1185 62.5251 43.3406 62.5646 43.553 62.5181C43.7654 62.4715 43.9507 62.3428 44.0684 62.1599C44.5239 61.5067 44.8281 60.7602 44.9588 59.9746C45.0895 59.189 45.0434 58.3842 44.8239 57.6187C45.2317 57.5633 45.6304 57.4543 46.0096 57.2944C49.243 55.9682 56.83 48.0942 59.9421 44.7701C60.1315 44.5659 60.3603 44.4023 60.6148 44.2892C60.8693 44.176 61.1441 44.1158 61.4225 44.112C61.7011 44.1078 61.9777 44.1596 62.2359 44.2642C62.4941 44.3688 62.7287 44.5242 62.9258 44.7211C63.119 44.9139 63.2722 45.143 63.3768 45.3951C63.4813 45.6472 63.5351 45.9175 63.5351 46.1905C63.5351 46.4634 63.4813 46.7337 63.3768 46.9858C63.2722 47.2379 63.119 47.467 62.9258 47.6598L54.5516 56.034C54.2125 56.3734 53.9439 56.7766 53.761 57.2202C53.5782 57.6638 53.4849 58.1391 53.4863 58.6189C53.4878 59.0987 53.584 59.5735 53.7695 60.016C53.955 60.4585 54.2261 60.8599 54.5673 61.1973L54.6118 61.2419C55.178 61.8094 55.917 62.1722 56.7123 62.273C56.5694 62.8659 56.5804 63.4855 56.7444 64.073C56.9084 64.6604 57.2199 65.1961 57.6493 65.6293C57.6597 65.6397 57.6702 65.6502 57.6814 65.6598C57.6914 65.671 57.7015 65.6819 57.7123 65.6923C58.3746 66.355 59.272 66.729 60.2089 66.7326C60.1552 67.2554 60.2187 67.7836 60.395 68.2786C60.5713 68.7737 60.8558 69.2232 61.2278 69.5944C61.2475 69.6189 61.2688 69.6426 61.2909 69.6651C61.7661 70.1396 62.3657 70.4705 63.0206 70.6196L61.7858 71.9804C61.775 71.9924 61.7645 72.0045 61.7545 72.0173C60.4676 73.4069 58.9179 74.5275 57.1951 75.3143C55.4723 76.1011 53.6106 76.5385 51.7177 76.6012H50.4622C50.3499 76.5968 50.2392 76.5951 50.1253 76.5882Z" fill="#2A2552"/>
</svg>
