<svg width="102" height="102" viewBox="0 0 102 102" fill="none" xmlns="http://www.w3.org/2000/svg">
<circle cx="51" cy="51" r="51" fill="white"/>
<path d="M44.4628 54.7664C44.5669 54.9734 44.7489 55.1307 44.9688 55.2037C45.1888 55.2767 45.4287 55.2595 45.6359 55.1559C45.8432 55.0522 46.0009 54.8706 46.0745 54.6509C46.148 54.4311 46.1314 54.1912 46.0282 53.9836C45.7037 53.347 45.2187 52.806 44.621 52.4143C44.0233 52.0225 43.3338 51.7936 42.6205 51.75C41.9072 51.7936 41.2177 52.0225 40.62 52.4143C40.0224 52.806 39.5373 53.347 39.2128 53.9836C39.1101 54.1907 39.0934 54.43 39.1665 54.6493C39.2395 54.8686 39.3964 55.0501 39.6028 55.1541C39.8092 55.2582 40.0484 55.2763 40.2681 55.2046C40.4879 55.1329 40.6703 54.9772 40.7757 54.7715C40.9556 54.4247 41.2179 54.1275 41.5396 53.9058C41.8613 53.6841 42.2324 53.5447 42.6205 53.5C43.0077 53.5445 43.3781 53.6832 43.6992 53.9039C44.0204 54.1247 44.2826 54.4208 44.4628 54.7664ZM58.3705 51.75C57.6572 51.7936 56.9677 52.0225 56.37 52.4143C55.7724 52.806 55.2873 53.347 54.9628 53.9836C54.8601 54.1907 54.8434 54.43 54.9165 54.6493C54.9895 54.8686 55.1464 55.0501 55.3528 55.1541C55.5592 55.2582 55.7984 55.2763 56.0181 55.2046C56.2379 55.1329 56.4203 54.9772 56.5257 54.7715C56.7056 54.4247 56.9679 54.1275 57.2896 53.9058C57.6113 53.6841 57.9824 53.5447 58.3705 53.5C58.7586 53.5444 59.1298 53.6835 59.4515 53.9051C59.7732 54.1267 60.0355 54.4239 60.2154 54.7706C60.3203 54.9769 60.5027 55.1333 60.7226 55.2054C60.9425 55.2775 61.182 55.2596 61.3887 55.1555C61.5954 55.0514 61.7525 54.8696 61.8255 54.65C61.8985 54.4304 61.8815 54.1908 61.7782 53.9836C61.4537 53.347 60.9687 52.806 60.371 52.4143C59.7733 52.0225 59.0838 51.7936 58.3705 51.75Z" fill="#2A2552"/>
<path d="M61.0625 37.75H60.9899C56.826 37.7773 52.9961 40.3109 50.4959 44.6107C47.9956 40.3109 44.1658 37.7773 40.0019 37.75H39.9292C36.586 37.8169 33.4024 39.1923 31.0621 41.5807C29.723 42.9124 28.6627 44.4975 27.9431 46.2435C27.2235 47.9896 26.859 49.8615 26.8709 51.75C26.8709 64.6776 49.1193 77.354 50.0669 77.8872C50.1978 77.9611 50.3456 78 50.4959 78C50.6462 78 50.794 77.9611 50.9248 77.8872C51.8725 77.354 74.1209 64.6776 74.1209 51.75C74.1328 49.8615 73.7683 47.9896 73.0487 46.2435C72.3291 44.4975 71.2687 42.9124 69.9296 41.5807C67.5897 39.1918 64.4059 37.8164 61.0625 37.75ZM50.4959 76.1124C47.3949 74.2804 28.6209 62.7302 28.6209 51.75C28.6096 50.0924 28.9287 48.4492 29.5596 46.9164C30.1904 45.3835 31.1204 43.9917 32.2952 42.8223C34.3068 40.7586 37.0473 39.5658 39.9284 39.5H39.9899C43.9308 39.5256 47.5616 42.2814 49.7029 46.87C49.7733 47.0209 49.8854 47.1486 50.0258 47.238C50.1663 47.3275 50.3294 47.375 50.4959 47.375C50.6624 47.375 50.8255 47.3275 50.966 47.238C51.1064 47.1486 51.2184 47.0209 51.2889 46.87C53.4302 42.2814 57.061 39.5256 61.0019 39.5H61.0634C63.9445 39.5658 66.685 40.7586 68.6966 42.8223C69.8714 43.9917 70.8013 45.3835 71.4322 46.9164C72.0631 48.4492 72.3822 50.0924 72.3709 51.75C72.3709 62.7302 53.5969 74.2804 50.4959 76.1124Z" fill="#2A2552"/>
<path d="M36.9797 42.2173C36.7456 42.3344 31.2461 45.1405 31.2461 50C31.2461 50.2321 31.3383 50.4546 31.5024 50.6187C31.6665 50.7828 31.889 50.875 32.1211 50.875C32.3532 50.875 32.5757 50.7828 32.7398 50.6187C32.9039 50.4546 32.9961 50.2321 32.9961 50C32.9961 46.2266 37.7155 43.8058 37.7633 43.7819C37.9701 43.6776 38.1271 43.4955 38.1999 43.2756C38.2727 43.0558 38.2553 42.816 38.1516 42.6089C38.0479 42.4018 37.8663 42.2443 37.6466 42.1709C37.4269 42.0975 37.1871 42.1142 36.9797 42.2173Z" fill="#2A2552"/>
<path d="M32.9961 52.625H31.2461V54.375H32.9961V52.625Z" fill="#2A2552"/>
<path d="M58.9906 61.6331C58.9095 61.5516 58.8132 61.487 58.7072 61.4428C58.6011 61.3986 58.4874 61.3757 58.3725 61.3755C58.2576 61.3752 58.1438 61.3976 58.0376 61.4414C57.9313 61.4851 57.8347 61.5494 57.7533 61.6305C57.7208 61.663 54.4439 64.875 50.4961 64.875C46.5483 64.875 43.2714 61.663 43.2389 61.6305C43.0743 61.4684 42.8523 61.3779 42.6213 61.3789C42.3903 61.3798 42.169 61.4721 42.0058 61.6355C41.8426 61.799 41.7506 62.0204 41.75 62.2514C41.7494 62.4824 41.8401 62.7043 42.0025 62.8686C42.1554 63.0225 45.8126 66.625 50.4961 66.625C51.1606 66.6213 51.8229 66.5491 52.4725 66.4095L53.1237 67.7111C53.5061 68.4752 54.1763 69.0562 54.987 69.3262C55.7977 69.5963 56.6824 69.5334 57.4467 69.1513C58.211 68.7692 58.7923 68.0992 59.0627 67.2887C59.3332 66.4781 59.2707 65.5933 58.8889 64.8289L58.2788 63.6086C58.2629 63.5861 58.2459 63.5643 58.2278 63.5435C58.6814 63.1727 58.9508 62.9079 58.9897 62.8687C59.1536 62.7049 59.2457 62.4827 59.2459 62.251C59.2461 62.0193 59.1542 61.7971 58.9906 61.6331ZM57.3235 65.6116C57.4966 65.9607 57.5242 66.3643 57.4003 66.7338C57.2764 67.1033 57.0111 67.4086 56.6625 67.5828C56.3139 67.757 55.9105 67.786 55.5406 67.6633C55.1707 67.5407 54.8645 67.2764 54.6891 66.9283L54.1792 65.909C54.3686 65.8372 54.5541 65.7632 54.7351 65.6847L54.9634 66.1414C55.0146 66.2444 55.0857 66.3364 55.1725 66.4119C55.2593 66.4875 55.3602 66.5452 55.4693 66.5817C55.5785 66.6183 55.6937 66.6329 55.8086 66.6248C55.9234 66.6167 56.0355 66.586 56.1384 66.5346C56.2413 66.4831 56.3331 66.4118 56.4085 66.3248C56.4838 66.2378 56.5413 66.1368 56.5776 66.0276C56.6138 65.9184 56.6282 65.8031 56.6198 65.6883C56.6115 65.5735 56.5805 65.4615 56.5288 65.3586L56.2942 64.8894C56.4723 64.7842 56.6418 64.6793 56.8048 64.5742L57.3235 65.6116ZM78.4961 26.375C78.4961 23.9628 76.9263 22 74.9961 22C73.0658 22 71.4961 23.9628 71.4961 26.375C71.4439 27.2634 71.6682 28.1462 72.1383 28.9018C72.6084 29.6575 73.3011 30.2489 74.1211 30.5947V36.875C74.1211 37.1071 74.2133 37.3296 74.3774 37.4937C74.5415 37.6578 74.764 37.75 74.9961 37.75C75.2282 37.75 75.4507 37.6578 75.6148 37.4937C75.7789 37.3296 75.8711 37.1071 75.8711 36.875V30.5947C76.6911 30.2489 77.3838 29.6575 77.8539 28.9018C78.324 28.1462 78.5483 27.2634 78.4961 26.375ZM74.9961 29C74.0476 29 73.2461 27.7978 73.2461 26.375C73.2461 24.9523 74.0476 23.75 74.9961 23.75C75.9446 23.75 76.7461 24.9523 76.7461 26.375C76.7461 27.7978 75.9446 29 74.9961 29ZM65.3711 29.875V36.875C65.3711 37.1071 65.4633 37.3296 65.6274 37.4937C65.7915 37.6578 66.014 37.75 66.2461 37.75C66.4782 37.75 66.7007 37.6578 66.8648 37.4937C67.0289 37.3296 67.1211 37.1071 67.1211 36.875V29.875C67.8171 29.8742 68.4843 29.5974 68.9764 29.1053C69.4685 28.6132 69.7453 27.946 69.7461 27.25V22.875C69.7461 22.6429 69.6539 22.4204 69.4898 22.2563C69.3257 22.0922 69.1032 22 68.8711 22C68.639 22 68.4165 22.0922 68.2524 22.2563C68.0883 22.4204 67.9961 22.6429 67.9961 22.875V27.25C67.9959 27.482 67.9037 27.7045 67.7396 27.8685C67.5756 28.0326 67.3531 28.1248 67.1211 28.125V22.875C67.1211 22.6429 67.0289 22.4204 66.8648 22.2563C66.7007 22.0922 66.4782 22 66.2461 22C66.014 22 65.7915 22.0922 65.6274 22.2563C65.4633 22.4204 65.3711 22.6429 65.3711 22.875V28.125C65.1391 28.1248 64.9166 28.0326 64.7526 27.8685C64.5885 27.7045 64.4963 27.482 64.4961 27.25V22.875C64.4961 22.6429 64.4039 22.4204 64.2398 22.2563C64.0757 22.0922 63.8532 22 63.6211 22C63.389 22 63.1665 22.0922 63.0024 22.2563C62.8383 22.4204 62.7461 22.6429 62.7461 22.875V27.25C62.7469 27.946 63.0237 28.6132 63.5158 29.1053C64.0079 29.5974 64.6751 29.8742 65.3711 29.875ZM26.8711 29C26.986 29.0001 27.0998 28.9775 27.206 28.9335C27.3122 28.8896 27.4087 28.8251 27.49 28.7439C27.5712 28.6626 27.6357 28.5661 27.6796 28.4599C27.7236 28.3537 27.7462 28.2399 27.7461 28.125V26.375C27.7461 26.1429 27.6539 25.9204 27.4898 25.7563C27.3257 25.5922 27.1032 25.5 26.8711 25.5C26.639 25.5 26.4165 25.5922 26.2524 25.7563C26.0883 25.9204 25.9961 26.1429 25.9961 26.375V28.125C25.996 28.2399 26.0186 28.3537 26.0626 28.4599C26.1065 28.5661 26.171 28.6626 26.2522 28.7439C26.3335 28.8251 26.43 28.8896 26.5362 28.9335C26.6424 28.9775 26.7562 29.0001 26.8711 29ZM27.7461 33.375V31.625C27.7461 31.3929 27.6539 31.1704 27.4898 31.0063C27.3257 30.8422 27.1032 30.75 26.8711 30.75C26.639 30.75 26.4165 30.8422 26.2524 31.0063C26.0883 31.1704 25.9961 31.3929 25.9961 31.625V33.375C25.9961 33.6071 26.0883 33.8296 26.2524 33.9937C26.4165 34.1578 26.639 34.25 26.8711 34.25C27.1032 34.25 27.3257 34.1578 27.4898 33.9937C27.6539 33.8296 27.7461 33.6071 27.7461 33.375ZM28.6211 30.75H30.3711C30.6032 30.75 30.8257 30.6578 30.9898 30.4937C31.1539 30.3296 31.2461 30.1071 31.2461 29.875C31.2461 29.6429 31.1539 29.4204 30.9898 29.2563C30.8257 29.0922 30.6032 29 30.3711 29H28.6211C28.389 29 28.1665 29.0922 28.0024 29.2563C27.8383 29.4204 27.7461 29.6429 27.7461 29.875C27.7461 30.1071 27.8383 30.3296 28.0024 30.4937C28.1665 30.6578 28.389 30.75 28.6211 30.75ZM25.1211 29H23.3711C23.139 29 22.9165 29.0922 22.7524 29.2563C22.5883 29.4204 22.4961 29.6429 22.4961 29.875C22.4961 30.1071 22.5883 30.3296 22.7524 30.4937C22.9165 30.6578 23.139 30.75 23.3711 30.75H25.1211C25.3532 30.75 25.5757 30.6578 25.7398 30.4937C25.9039 30.3296 25.9961 30.1071 25.9961 29.875C25.9961 29.6429 25.9039 29.4204 25.7398 29.2563C25.5757 29.0922 25.3532 29 25.1211 29ZM39.1211 34.25C39.6403 34.25 40.1478 34.096 40.5795 33.8076C41.0111 33.5192 41.3476 33.1092 41.5463 32.6295C41.745 32.1499 41.7969 31.6221 41.6957 31.1129C41.5944 30.6037 41.3444 30.136 40.9773 29.7688C40.6101 29.4017 40.1424 29.1517 39.6332 29.0504C39.124 28.9492 38.5962 29.0011 38.1166 29.1998C37.6369 29.3985 37.2269 29.7349 36.9385 30.1666C36.65 30.5983 36.4961 31.1058 36.4961 31.625C36.4969 32.321 36.7737 32.9882 37.2658 33.4803C37.7579 33.9724 38.4251 34.2492 39.1211 34.25ZM39.1211 30.75C39.2942 30.75 39.4633 30.8013 39.6072 30.8975C39.7511 30.9936 39.8633 31.1303 39.9295 31.2902C39.9957 31.45 40.013 31.626 39.9793 31.7957C39.9455 31.9654 39.8622 32.1213 39.7398 32.2437C39.6174 32.3661 39.4615 32.4494 39.2918 32.4832C39.1221 32.5169 38.9461 32.4996 38.7862 32.4334C38.6264 32.3672 38.4897 32.255 38.3936 32.1111C38.2974 31.9672 38.2461 31.7981 38.2461 31.625C38.2463 31.393 38.3385 31.1705 38.5025 31.0065C38.6666 30.8424 38.8891 30.7502 39.1211 30.75Z" fill="#A3D7E8"/>
</svg>
