<svg width="102" height="102" viewBox="0 0 102 102" fill="none" xmlns="http://www.w3.org/2000/svg">
<circle cx="51" cy="51" r="51" fill="white"/>
<path d="M65.4228 22.3704C65.6572 22.3704 65.8863 22.3009 66.0812 22.1706C66.2761 22.0404 66.428 21.8553 66.5177 21.6387C66.6074 21.4222 66.6309 21.1839 66.5852 20.954C66.5395 20.7241 66.4266 20.5129 66.2608 20.3471C66.0951 20.1814 65.8839 20.0685 65.654 20.0228C65.4241 19.977 65.1858 20.0005 64.9692 20.0902C64.7527 20.1799 64.5676 20.3318 64.4373 20.5267C64.3071 20.7216 64.2376 20.9508 64.2376 21.1852C64.238 21.4994 64.3629 21.8007 64.5851 22.0228C64.8073 22.245 65.1086 22.37 65.4228 22.3704ZM65.4228 20.5926C65.54 20.5926 65.6546 20.6273 65.752 20.6925C65.8495 20.7576 65.9254 20.8501 65.9703 20.9584C66.0151 21.0667 66.0268 21.1858 66.004 21.3008C65.9811 21.4157 65.9247 21.5213 65.8418 21.6042C65.7589 21.6871 65.6533 21.7435 65.5384 21.7664C65.4234 21.7893 65.3043 21.7775 65.196 21.7327C65.0877 21.6878 64.9952 21.6119 64.9301 21.5144C64.8649 21.417 64.8302 21.3024 64.8302 21.1852C64.8303 21.0281 64.8928 20.8774 65.0039 20.7663C65.115 20.6552 65.2657 20.5927 65.4228 20.5926ZM34.2129 32.2469C34.0566 32.2469 33.9039 32.2933 33.7739 32.3801C33.644 32.4669 33.5427 32.5903 33.4829 32.7347C33.4231 32.879 33.4075 33.0379 33.438 33.1912C33.4684 33.3445 33.5437 33.4852 33.6542 33.5957C33.7647 33.7062 33.9055 33.7815 34.0588 33.812C34.212 33.8425 34.3709 33.8268 34.5153 33.767C34.6596 33.7072 34.783 33.6059 34.8699 33.476C34.9567 33.3461 35.003 33.1933 35.003 33.037C35.0028 32.8276 34.9195 32.6267 34.7713 32.4786C34.6232 32.3305 34.4224 32.2472 34.2129 32.2469ZM34.2129 33.4321C34.1348 33.4321 34.0584 33.4089 33.9934 33.3655C33.9285 33.3221 33.8778 33.2604 33.8479 33.1882C33.818 33.116 33.8102 33.0366 33.8254 32.96C33.8407 32.8833 33.8783 32.8129 33.9336 32.7577C33.9888 32.7024 34.0592 32.6648 34.1358 32.6496C34.2125 32.6343 34.2919 32.6421 34.3641 32.672C34.4363 32.7019 34.498 32.7526 34.5414 32.8176C34.5848 32.8825 34.608 32.9589 34.608 33.037C34.6079 33.1418 34.5662 33.2422 34.4921 33.3163C34.4181 33.3903 34.3176 33.432 34.2129 33.4321ZM36.9783 21.1852C36.8221 21.1852 36.6693 21.2315 36.5394 21.3183C36.4094 21.4052 36.3082 21.5286 36.2484 21.6729C36.1886 21.8173 36.1729 21.9762 36.2034 22.1295C36.2339 22.2827 36.3091 22.4235 36.4196 22.534C36.5301 22.6445 36.6709 22.7198 36.8242 22.7503C36.9775 22.7807 37.1363 22.7651 37.2807 22.7053C37.4251 22.6455 37.5485 22.5442 37.6353 22.4143C37.7221 22.2843 37.7685 22.1316 37.7685 21.9753C37.7682 21.7658 37.6849 21.565 37.5368 21.4169C37.3886 21.2687 37.1878 21.1854 36.9783 21.1852ZM36.9783 22.3704C36.9002 22.3704 36.8238 22.3472 36.7588 22.3038C36.6939 22.2604 36.6432 22.1987 36.6133 22.1265C36.5834 22.0543 36.5756 21.9749 36.5909 21.8982C36.6061 21.8216 36.6437 21.7512 36.699 21.696C36.7542 21.6407 36.8246 21.6031 36.9013 21.5878C36.9779 21.5726 37.0573 21.5804 37.1295 21.6103C37.2017 21.6402 37.2634 21.6909 37.3068 21.7558C37.3502 21.8208 37.3734 21.8972 37.3734 21.9753C37.3733 22.0801 37.3316 22.1805 37.2576 22.2545C37.1835 22.3286 37.0831 22.3703 36.9783 22.3704ZM80.4351 36.7361C80.2788 36.7361 80.1261 36.7824 79.9961 36.8693C79.8662 36.9561 79.7649 37.0795 79.7051 37.2239C79.6453 37.3682 79.6297 37.5271 79.6602 37.6804C79.6907 37.8336 79.7659 37.9744 79.8764 38.0849C79.9869 38.1954 80.1277 38.2707 80.281 38.3012C80.4342 38.3317 80.5931 38.316 80.7375 38.2562C80.8819 38.1964 81.0053 38.0951 81.0921 37.9652C81.1789 37.8353 81.2252 37.6825 81.2252 37.5262C81.225 37.3167 81.1417 37.1159 80.9936 36.9678C80.8454 36.8197 80.6446 36.7363 80.4351 36.7361ZM80.4351 37.9213C80.357 37.9213 80.2806 37.8981 80.2156 37.8547C80.1507 37.8113 80.1 37.7496 80.0701 37.6774C80.0402 37.6052 80.0324 37.5258 80.0476 37.4491C80.0629 37.3725 80.1005 37.3021 80.1558 37.2469C80.211 37.1916 80.2814 37.154 80.3581 37.1388C80.4347 37.1235 80.5141 37.1313 80.5863 37.1612C80.6585 37.1911 80.7202 37.2418 80.7636 37.3067C80.807 37.3717 80.8302 37.4481 80.8302 37.5262C80.8301 37.631 80.7884 37.7314 80.7144 37.8055C80.6403 37.8795 80.5399 37.9212 80.4351 37.9213ZM21.966 24.3457C21.966 24.1894 21.9196 24.0366 21.8328 23.9067C21.746 23.7768 21.6226 23.6755 21.4782 23.6157C21.3339 23.5559 21.175 23.5403 21.0217 23.5707C20.8685 23.6012 20.7277 23.6765 20.6172 23.787C20.5067 23.8975 20.4314 24.0383 20.4009 24.1915C20.3704 24.3448 20.3861 24.5037 20.4459 24.648C20.5057 24.7924 20.607 24.9158 20.7369 25.0026C20.8668 25.0895 21.0196 25.1358 21.1759 25.1358C21.3853 25.1356 21.5862 25.0522 21.7343 24.9041C21.8824 24.756 21.9657 24.5552 21.966 24.3457ZM20.7808 24.3457C20.7808 24.2675 20.804 24.1912 20.8474 24.1262C20.8908 24.0612 20.9525 24.0106 21.0247 23.9807C21.0969 23.9508 21.1763 23.943 21.2529 23.9582C21.3296 23.9735 21.4 24.0111 21.4552 24.0663C21.5105 24.1216 21.5481 24.192 21.5633 24.2686C21.5786 24.3452 21.5708 24.4247 21.5409 24.4969C21.511 24.5691 21.4603 24.6308 21.3954 24.6742C21.3304 24.7176 21.254 24.7407 21.1759 24.7407C21.0711 24.7406 20.9707 24.699 20.8966 24.6249C20.8226 24.5508 20.7809 24.4504 20.7808 24.3457Z" fill="#2A2552"/>
<path d="M51.431 24.049L52.0184 23.2766L51.6475 23.0665L51.2706 23.9317H51.2579L50.8747 23.0724L50.4974 23.2889L51.0786 24.0431V24.0553L50.1699 23.938V24.3583L51.0849 24.241V24.2532L50.4974 25.007L50.8498 25.2298L51.252 24.3583H51.2638L51.6348 25.2235L52.0243 25.0011L51.431 24.2592V24.2469L52.3641 24.3583V23.938L51.431 24.0616V24.049Z" fill="#A3D7E8"/>
<path d="M22.4308 39.8965L22.0926 40.3307L22.2957 40.4591L22.5272 39.9569H22.5339L22.7477 40.4555L22.9721 40.3271L22.6303 39.9V39.8929L23.1676 39.9569V39.7148L22.6303 39.7863V39.7792L22.9685 39.3339L22.7548 39.213L22.5379 39.7112H22.5308L22.3099 39.2166L22.0926 39.341L22.4273 39.7756V39.7827L21.9038 39.7148V39.9569L22.4308 39.8894V39.8965Z" fill="#A3D7E8"/>
<path d="M69.7685 30.9483V30.5363L68.8531 30.6576V30.6453L69.4295 29.8876L69.0657 29.6814L68.6959 30.53H68.6833L68.3076 29.6873L67.9374 29.8999L68.5075 30.6394V30.6517L67.6162 30.5363V30.9483L68.5134 30.8334V30.8456L67.9374 31.5852L68.2831 31.8037L68.6773 30.9483H68.6892L69.053 31.7973L69.4351 31.5793L68.8531 30.8516V30.8393L69.7685 30.9483Z" fill="#A3D7E8"/>
<path d="M79.8195 21.0216L80.3165 20.3678L80.0028 20.19L79.6836 20.9221H79.6729L79.349 20.1952L79.0298 20.3785L79.5216 21.0165V21.0268L78.7524 20.9276V21.2832L79.5268 21.1836V21.1943L79.0298 21.8323L79.3276 22.0207L79.6682 21.2832H79.6781L79.9921 22.0152L80.3216 21.8272L79.8195 21.1994V21.1887L80.6092 21.2832V20.9276L79.8195 21.0319V21.0216Z" fill="#A3D7E8"/>
<path d="M64.2981 80.0494H61.0161C60.8174 80.0653 60.6321 80.1554 60.4969 80.3019C60.3618 80.4483 60.2867 80.6402 60.2867 80.8395C60.2867 81.0388 60.3618 81.2307 60.4969 81.3772C60.6321 81.5236 60.8174 81.6137 61.0161 81.6296H64.2981C64.4968 81.6137 64.6821 81.5236 64.8173 81.3772C64.9524 81.2307 65.0275 81.0388 65.0275 80.8395C65.0275 80.6402 64.9524 80.4483 64.8173 80.3019C64.6821 80.1554 64.4968 80.0653 64.2981 80.0494ZM40.5944 80.0494H37.3124C37.1137 80.0653 36.9284 80.1554 36.7932 80.3019C36.6581 80.4483 36.583 80.6402 36.583 80.8395C36.583 81.0388 36.6581 81.2307 36.7932 81.3772C36.9284 81.5236 37.1137 81.6137 37.3124 81.6296H40.5944C40.7931 81.6137 40.9784 81.5236 41.1136 81.3772C41.2487 81.2307 41.3238 81.0388 41.3238 80.8395C41.3238 80.6402 41.2487 80.4483 41.1136 80.3019C40.9784 80.1554 40.7931 80.0653 40.5944 80.0494ZM58.7065 80.0494H42.904C42.6945 80.0494 42.4935 80.1326 42.3453 80.2808C42.1971 80.429 42.1139 80.63 42.1139 80.8395C42.1139 81.0491 42.1971 81.25 42.3453 81.3982C42.4935 81.5464 42.6945 81.6296 42.904 81.6296H49.2013V82.4198H46.0645C45.8549 82.4198 45.654 82.503 45.5058 82.6512C45.3576 82.7994 45.2744 83.0003 45.2744 83.2099C45.2744 83.4194 45.3576 83.6204 45.5058 83.7686C45.654 83.9168 45.8549 84 46.0645 84H55.941C56.1506 84 56.3516 83.9168 56.4997 83.7686C56.6479 83.6204 56.7312 83.4194 56.7312 83.2099C56.7312 83.0003 56.6479 82.7994 56.4997 82.6512C56.3516 82.503 56.1506 82.4198 55.941 82.4198H52.4092V81.6296H58.7065C58.916 81.6296 59.117 81.5464 59.2652 81.3982C59.4134 81.25 59.4966 81.0491 59.4966 80.8395C59.4966 80.63 59.4134 80.429 59.2652 80.2808C59.117 80.1326 58.916 80.0494 58.7065 80.0494Z" fill="#A3D7E8"/>
<path d="M77.1642 76.8889H52.6427L65.6481 68.4148C65.6609 68.4069 65.6728 68.3976 65.6837 68.3872C65.9832 68.1606 66.2237 67.8651 66.3847 67.5258C66.5457 67.1865 66.6225 66.8133 66.6086 66.438C66.5946 66.0627 66.4903 65.6963 66.3046 65.3699C66.1188 65.0434 65.857 64.7666 65.5415 64.563C65.2311 64.3706 64.8762 64.2619 64.5114 64.2474C64.1466 64.2328 63.7842 64.313 63.4595 64.48L63.4476 64.4879L63.0091 63.8874C62.7261 63.4814 62.3508 63.1483 61.914 62.9154C61.4772 62.6826 60.9914 62.5568 60.4965 62.5481C60.2585 62.5397 60.0256 62.4765 59.8159 62.3634C59.6063 62.2504 59.4255 62.0905 59.2876 61.8963L58.9913 61.5131C62.7856 60.0617 65.9517 57.3272 67.9398 53.7845C69.9279 50.2418 70.6124 46.1147 69.8745 42.1199C69.1365 38.1251 67.0227 34.5149 63.9001 31.9163C60.7775 29.3177 56.8434 27.8949 52.781 27.8949C48.7186 27.8949 44.7844 29.3177 41.6619 31.9163C38.5393 34.5149 36.4254 38.1251 35.6875 42.1199C34.9495 46.1147 35.634 50.2418 37.6221 53.7845C39.6102 57.3272 42.7763 60.0617 46.5706 61.5131L46.2743 61.8963C46.1364 62.0905 45.9557 62.2504 45.746 62.3634C45.5363 62.4765 45.3035 62.5397 45.0654 62.5481C44.571 62.5564 44.0857 62.6821 43.6494 62.915C43.2132 63.1478 42.8387 63.4812 42.5568 63.8874L41.7034 65.0489L36.5637 66.2104C36.3814 65.9689 36.1456 65.773 35.8748 65.638C35.6041 65.503 35.3057 65.4325 35.0032 65.4321H33.423C32.8991 65.4323 32.3968 65.6405 32.0264 66.0109C31.656 66.3813 31.4478 66.8836 31.4476 67.4074V73.7284C31.4485 74.252 31.6569 74.7539 32.0272 75.1242C32.3974 75.4944 32.8993 75.7028 33.423 75.7037H35.0032C35.3564 75.7024 35.7028 75.6059 36.0059 75.4245C36.309 75.243 36.5576 74.9833 36.7257 74.6726H38.0412C38.4391 74.6721 38.8347 74.7321 39.2146 74.8504L44.619 76.8889H24.4472C24.3347 76.8741 24.2204 76.8835 24.1118 76.9164C24.0033 76.9494 23.9031 77.0051 23.8178 77.0799C23.7325 77.1547 23.6642 77.2468 23.6174 77.3502C23.5706 77.4535 23.5464 77.5656 23.5464 77.679C23.5464 77.7924 23.5706 77.9045 23.6174 78.0079C23.6642 78.1112 23.7325 78.2033 23.8178 78.2781C23.9031 78.3529 24.0033 78.4086 24.1118 78.4416C24.2204 78.4745 24.3347 78.4839 24.4472 78.4691H77.1642C77.2766 78.4839 77.391 78.4745 77.4995 78.4416C77.608 78.4086 77.7083 78.3529 77.7935 78.2781C77.8788 78.2033 77.9471 78.1112 77.9939 78.0079C78.0407 77.9045 78.065 77.7924 78.065 77.679C78.065 77.5656 78.0407 77.4535 77.9939 77.3502C77.9471 77.2468 77.8788 77.1547 77.7935 77.0799C77.7083 77.0051 77.608 76.9494 77.4995 76.9164C77.391 76.8835 77.2766 76.8741 77.1642 76.8889ZM35.3983 73.7284C35.398 73.8331 35.3562 73.9334 35.2822 74.0074C35.2082 74.0814 35.1079 74.1231 35.0032 74.1235H33.423C33.3183 74.1231 33.218 74.0814 33.1439 74.0074C33.0699 73.9334 33.0282 73.8331 33.0279 73.7284V67.4074C33.0282 67.3027 33.0699 67.2024 33.1439 67.1284C33.218 67.0544 33.3183 67.0127 33.423 67.0123H35.0032C35.1079 67.0127 35.2082 67.0544 35.2822 67.1284C35.3562 67.2024 35.398 67.3027 35.3983 67.4074V73.7284ZM36.9785 45.2839C36.9771 42.37 37.7814 39.5124 39.3026 37.027C40.8237 34.5416 43.0025 32.5252 45.598 31.2006C48.1936 29.8761 51.1048 29.295 54.0099 29.5217C56.9151 29.7483 59.701 30.7737 62.0597 32.4847C64.4185 34.1957 66.2582 36.5256 67.3755 39.2168C68.4929 41.908 68.8444 44.8558 68.3911 47.7343C67.9378 50.6128 66.6975 53.3099 64.8072 55.5275C62.9168 57.7452 60.4502 59.3969 57.6797 60.3002C57.2583 60.078 56.7893 59.9614 56.3128 59.9605H56.2457C56.0272 59.9554 55.8125 59.9025 55.6166 59.8056C55.4208 59.7087 55.2485 59.5701 55.1118 59.3995L53.5711 57.6296C52.9232 56.883 51.9909 57.6296 51.9909 57.6296L50.4501 59.3995C50.3135 59.5701 50.1412 59.7087 49.9453 59.8056C49.7495 59.9025 49.5348 59.9554 49.3163 59.9605H49.2491C48.7727 59.9614 48.3036 60.078 47.8822 60.3002C44.7149 59.2645 41.9556 57.2551 39.9976 54.5586C38.0396 51.8621 36.983 48.6163 36.9785 45.2839ZM45.0654 64.1284C45.5457 64.121 46.0177 64.0027 46.4446 63.7827C46.8716 63.5627 47.2419 63.247 47.5267 62.8602L48.0442 62.1926C48.1813 61.9985 48.3613 61.8387 48.5703 61.7256C48.7793 61.6125 49.0116 61.5493 49.2491 61.5407H49.3163C49.7604 61.5338 50.1978 61.4318 50.5992 61.2417C51.0005 61.0516 51.3565 60.7777 51.6432 60.4385L52.781 59.1309L53.9188 60.4385C54.2054 60.7777 54.5614 61.0516 54.9628 61.2417C55.3642 61.4318 55.8016 61.5338 56.2457 61.5407H56.3128C56.5503 61.5493 56.7826 61.6125 56.9916 61.7256C57.2006 61.8387 57.3807 61.9985 57.5178 62.1926L58.0353 62.8602C58.3201 63.247 58.6904 63.5627 59.1173 63.7827C59.5443 64.0027 60.0163 64.121 60.4965 64.1284C60.7425 64.1384 60.9826 64.2062 61.1974 64.3264C61.4122 64.4465 61.5957 64.6155 61.7331 64.8197L62.0214 65.2187L53.3538 69.6711C53.129 69.111 52.7037 68.6547 52.1607 68.3911L44.7138 64.8593C44.4793 64.7466 44.2263 64.677 43.9672 64.6538C44.103 64.494 44.2711 64.3646 44.4603 64.2741C44.6495 64.1836 44.8557 64.1339 45.0654 64.1284ZM49.0042 76.8573L39.7518 73.361C39.736 73.357 39.7202 73.3531 39.7084 73.3491C39.169 73.1793 38.6068 73.0927 38.0412 73.0923H36.9785V67.7393L43.6116 66.238C43.7551 66.2061 43.9052 66.2228 44.0383 66.2854L51.4812 69.8173C51.5897 69.8738 51.6853 69.9521 51.7621 70.0473C51.8389 70.1425 51.8952 70.2524 51.9276 70.3704C51.9796 70.5267 51.9998 70.6918 51.9869 70.856C51.974 71.0202 51.9283 71.1801 51.8526 71.3264C51.7886 71.487 51.6644 71.6162 51.5064 71.6864C51.3483 71.7565 51.1692 71.762 51.0072 71.7017L44.1528 68.7309C43.9606 68.6476 43.7431 68.6441 43.5482 68.7211C43.3534 68.7982 43.1971 68.9495 43.1138 69.1417C43.0305 69.334 43.027 69.5515 43.1041 69.7463C43.1811 69.9412 43.3324 70.0974 43.5247 70.1807L50.3751 73.1516C50.648 73.2706 50.9425 73.3324 51.2402 73.3333C51.6563 73.3261 52.0625 73.2053 52.4149 72.9838C52.7672 72.7624 53.0523 72.4488 53.2393 72.077C53.3591 71.8548 53.4469 71.6167 53.5 71.3699L64.1825 65.8864C64.2642 65.8438 64.3557 65.8232 64.4478 65.8267C64.5399 65.8301 64.6296 65.8575 64.7079 65.9062C64.8046 65.9705 64.8842 66.0573 64.9399 66.1591C64.9956 66.2609 65.0258 66.3748 65.0279 66.4909C65.0346 66.6071 65.0141 66.7233 64.9682 66.8302C64.9223 66.9372 64.8521 67.032 64.7632 67.1072L50.1301 76.64C49.7984 76.8587 49.3935 76.9369 49.0042 76.8573Z" fill="#2A2552"/>
<path d="M64.2972 38.7812C64.2442 38.5994 64.1316 38.4405 63.9776 38.3302C63.8236 38.2199 63.637 38.1645 63.4478 38.1728C63.0962 38.1728 54.7643 38.2242 51.8172 42.7318C50.9633 44.069 50.6262 45.6716 50.869 47.2395C47.827 45.7304 43.3115 46.8997 43.0982 46.959C42.941 47 42.8003 47.0885 42.6954 47.2126C42.5906 47.3366 42.5266 47.49 42.5123 47.6518C42.498 47.8136 42.5342 47.9759 42.6157 48.1164C42.6972 48.2568 42.8202 48.3687 42.9678 48.4365C43.0745 48.5116 43.8764 49.1318 45.6068 52.2844C46.4918 53.8884 47.6335 54.8326 49.0083 55.0894C49.2571 55.136 49.5097 55.1598 49.7629 55.1605C50.5373 55.1466 51.2988 54.9589 51.991 54.6114V57.6296C51.991 57.6296 52.9233 56.883 53.5712 57.6296V51.3521C54.2157 51.5161 54.8777 51.601 55.5426 51.6049C56.4391 51.617 57.3266 51.4251 58.1382 51.0439C59.8527 50.2222 61.0261 48.559 61.6226 46.0938C62.8354 41.0884 63.7243 39.8321 63.91 39.6109C64.063 39.5416 64.1861 39.4199 64.2571 39.2677C64.3281 39.1155 64.3423 38.943 64.2972 38.7812ZM51.9357 52.8296C51.4774 53.1378 50.4028 53.7422 49.3006 53.5368C48.4117 53.3709 47.6374 52.6914 46.9935 51.522C46.3804 50.3678 45.6819 49.2612 44.9036 48.2114C46.6063 47.9625 49.4231 47.8084 50.9401 49.1674C51.7974 49.9378 52.1332 51.1704 51.9357 52.8296ZM60.0858 45.7225C59.6078 47.6978 58.7268 49.0094 57.4665 49.6178C55.7954 50.4197 53.8399 49.8272 53.1406 49.5704C52.1411 47.1368 52.1372 45.1299 53.1367 43.601C54.9461 40.8277 59.5722 40.0533 61.9624 39.836C61.4567 40.9146 60.8167 42.716 60.0858 45.7225Z" fill="#A3D7E8"/>
</svg>
