<svg width="102" height="102" viewBox="0 0 102 102" fill="none" xmlns="http://www.w3.org/2000/svg">
<circle cx="51" cy="51" r="51" fill="white"/>
<path d="M48.7485 32.3516C48.9807 32.986 49.0481 33.6689 48.9445 34.3365C48.8409 35.0041 48.5697 35.6344 48.1561 36.1686C48.0896 36.2516 48.0401 36.347 48.0105 36.4492C47.9808 36.5514 47.9716 36.6584 47.9833 36.7641C47.9951 36.8699 48.0276 36.9723 48.0789 37.0655C48.1303 37.1586 48.1995 37.2408 48.2827 37.3072C48.3658 37.3736 48.4612 37.423 48.5634 37.4524C48.6657 37.4819 48.7727 37.491 48.8784 37.4791C48.9842 37.4672 49.0865 37.4345 49.1796 37.383C49.2727 37.3315 49.3548 37.2621 49.421 37.1789C50.0051 36.4355 50.3908 35.5559 50.5421 34.6227C50.6933 33.6895 50.6051 32.7331 50.2857 31.8433C50.1119 31.3545 49.8996 30.8802 49.6507 30.425C49.2062 29.5616 48.855 28.8795 49.0291 27.9819C49.2211 27.1888 49.6459 26.4713 50.2487 25.9215C50.325 25.8475 50.386 25.7592 50.4282 25.6616C50.4704 25.564 50.4929 25.459 50.4945 25.3527C50.4961 25.2464 50.4768 25.1409 50.4376 25.0421C50.3984 24.9432 50.3402 24.8531 50.2661 24.7768C50.1921 24.7005 50.1038 24.6395 50.0062 24.5973C49.9086 24.5552 49.8037 24.5326 49.6974 24.531C49.5911 24.5294 49.4855 24.5487 49.3867 24.5879C49.2879 24.6271 49.1977 24.6854 49.1214 24.7594C48.2763 25.5361 47.6894 26.5532 47.4397 27.6736C47.1587 29.122 47.7178 30.2081 48.2111 31.1662C48.4206 31.5469 48.6002 31.9432 48.7485 32.3516Z" fill="#2A2552"/>
<path d="M43.4867 32.3516C43.7189 32.986 43.7864 33.669 43.6828 34.3365C43.5792 35.0041 43.3079 35.6344 42.8944 36.1686C42.8279 36.2517 42.7784 36.347 42.7487 36.4492C42.7191 36.5514 42.7098 36.6584 42.7216 36.7641C42.7333 36.8699 42.7658 36.9723 42.8172 37.0655C42.8685 37.1586 42.9378 37.2408 43.0209 37.3072C43.104 37.3736 43.1995 37.423 43.3017 37.4525C43.4039 37.4819 43.511 37.491 43.6167 37.4791C43.7224 37.4672 43.8248 37.4345 43.9179 37.383C44.011 37.3315 44.093 37.2621 44.1593 37.1789C44.7434 36.4355 45.1291 35.5559 45.2803 34.6227C45.4316 33.6895 45.3433 32.7331 45.0239 31.8433C44.8502 31.3545 44.6378 30.8802 44.3889 30.425C43.9444 29.5616 43.5933 28.8795 43.7674 27.9819C43.9594 27.1888 44.3841 26.4713 44.987 25.9215C45.0633 25.8475 45.1243 25.7592 45.1664 25.6616C45.2086 25.564 45.2312 25.459 45.2328 25.3528C45.2344 25.2465 45.215 25.1409 45.1759 25.0421C45.1367 24.9432 45.0784 24.8531 45.0044 24.7768C44.9304 24.7005 44.842 24.6395 44.7445 24.5973C44.6469 24.5552 44.5419 24.5326 44.4356 24.531C44.3293 24.5294 44.2238 24.5487 44.1249 24.5879C44.0261 24.6271 43.936 24.6854 43.8597 24.7594C43.0145 25.5361 42.4276 26.5532 42.178 27.6736C41.8969 29.1221 42.456 30.2081 42.9493 31.1662C43.1588 31.5469 43.3385 31.9432 43.4867 32.3516ZM54.0105 32.3516C54.2426 32.9861 54.31 33.669 54.2064 34.3365C54.1028 35.0041 53.8315 35.6344 53.418 36.1686C53.3515 36.2517 53.302 36.347 53.2723 36.4492C53.2427 36.5514 53.2334 36.6584 53.2452 36.7641C53.2569 36.8699 53.2894 36.9723 53.3408 37.0655C53.3922 37.1586 53.4614 37.2408 53.5445 37.3072C53.6277 37.3736 53.7231 37.423 53.8253 37.4525C53.9275 37.4819 54.0346 37.491 54.1403 37.4791C54.246 37.4672 54.3484 37.4345 54.4415 37.383C54.5346 37.3315 54.6166 37.2621 54.6829 37.1789C55.267 36.4355 55.6527 35.5559 55.8039 34.6227C55.9551 33.6895 55.8669 32.7331 55.5474 31.8433C55.3737 31.3544 55.1615 30.8802 54.9126 30.425C54.4679 29.5616 54.1169 28.8795 54.2912 27.9819C54.4831 27.1889 54.9078 26.4714 55.5106 25.9215C55.5869 25.8475 55.648 25.7592 55.6902 25.6616C55.7324 25.564 55.755 25.459 55.7566 25.3527C55.7583 25.2463 55.7389 25.1407 55.6997 25.0419C55.6606 24.943 55.6023 24.8529 55.5282 24.7765C55.4542 24.7002 55.3658 24.6392 55.2682 24.5971C55.1706 24.5549 55.0656 24.5324 54.9593 24.5308C54.853 24.5292 54.7474 24.5485 54.6486 24.5878C54.5497 24.627 54.4596 24.6853 54.3833 24.7594C53.5382 25.5362 52.9513 26.5532 52.7014 27.6735C52.4207 29.122 52.9797 30.2081 53.473 31.1662C53.6825 31.5469 53.8622 31.9432 54.0105 32.3516ZM39.7292 66.4255C35.798 66.1593 34.7891 65.6245 34.5377 65.4069C34.3754 65.2664 34.1638 65.1961 33.9497 65.2115C33.7355 65.2269 33.5363 65.3268 33.3957 65.4891C33.2552 65.6515 33.1849 65.863 33.2003 66.0771C33.2158 66.2913 33.3156 66.4906 33.4779 66.6311C34.0128 67.094 35.2312 67.7438 39.6198 68.041C39.8327 68.0501 40.0409 67.977 40.2014 67.8369C40.362 67.6967 40.4625 67.5002 40.4822 67.2881C40.4965 67.0739 40.4252 66.8628 40.2841 66.7011C40.1429 66.5394 39.9434 66.4403 39.7292 66.4255ZM52.3365 52.5605L50.5189 52.3002L49.708 50.6803C49.6407 50.546 49.5373 50.433 49.4094 50.3541C49.2816 50.2751 49.1343 50.2333 48.984 50.2333C48.8337 50.2333 48.6864 50.2751 48.5586 50.3541C48.4307 50.433 48.3274 50.546 48.2601 50.6803L47.4492 52.3002L45.6311 52.5605C45.4809 52.582 45.3398 52.6453 45.2239 52.7431C45.1079 52.8409 45.0218 52.9693 44.9753 53.1137C44.9288 53.2581 44.9238 53.4127 44.9609 53.5598C44.998 53.7069 45.0756 53.8406 45.185 53.9457L46.4936 55.2029L46.1853 56.9755C46.1594 57.1241 46.1756 57.2769 46.2319 57.4168C46.2882 57.5566 46.3825 57.678 46.5042 57.7672C46.6258 57.8563 46.7699 57.9097 46.9202 57.9214C47.0706 57.933 47.2212 57.9024 47.3551 57.8331L48.984 56.9889L50.6129 57.8331C50.7468 57.9024 50.8974 57.933 51.0478 57.9214C51.1981 57.9097 51.3423 57.8563 51.4639 57.7672C51.5855 57.678 51.6798 57.5567 51.7361 57.4168C51.7925 57.2769 51.8086 57.1241 51.7828 56.9755L51.4741 55.2029L52.7828 53.9457C52.8922 53.8406 52.9698 53.7068 53.0068 53.5597C53.0439 53.4126 53.0389 53.2581 52.9923 53.1137C52.9458 52.9693 52.8597 52.8409 52.7437 52.7431C52.6278 52.6453 52.4867 52.582 52.3365 52.5605ZM50.0422 54.3337C49.9466 54.4255 49.875 54.5395 49.8338 54.6654C49.7925 54.7914 49.7828 54.9256 49.8056 55.0562L49.9078 55.6442L49.3563 55.3584C49.2413 55.2988 49.1136 55.2677 48.984 55.2677C48.8544 55.2677 48.7267 55.2988 48.6117 55.3584L48.0603 55.6442L48.1624 55.0562C48.1852 54.9256 48.1755 54.7914 48.1343 54.6655C48.093 54.5395 48.0215 54.4255 47.9259 54.3337L47.5035 53.9279L48.0982 53.843C48.2276 53.8243 48.3506 53.7747 48.4566 53.6983C48.5627 53.6218 48.6487 53.5209 48.7073 53.404L48.984 52.8512L49.2607 53.404C49.3193 53.5208 49.4053 53.6218 49.5114 53.6982C49.6175 53.7747 49.7404 53.8243 49.8698 53.843L50.4645 53.9279L50.0422 54.3337Z" fill="#A3D7E8"/>
<path d="M40.4486 62.7355C41.5862 65.0636 43.8272 66.6262 46.0329 66.6262H51.9108C51.986 66.076 52.0932 65.5306 52.2318 64.9929C52.1329 65.0024 46.0329 65.0071 46.0329 65.0071C44.4522 65.0071 42.7503 63.7733 41.8945 62.0068C41.8874 61.992 35.1863 50.0689 35.1863 50.0689C34.5482 48.6352 34.0946 47.1264 33.8362 45.5786H64.1323C63.8738 47.1264 63.4201 48.6352 62.7821 50.0689L60.6752 53.8171C61.5125 53.2869 62.3922 52.827 63.3054 52.4421C63.3054 52.4421 64.2216 50.811 64.2288 50.7962C65.0293 49.0081 65.5701 47.1148 65.8348 45.1736C67.1103 45.1548 68.6843 45.4782 69.4452 46.9911C69.7783 47.6502 69.9742 48.3701 70.0212 49.1072C70.0681 49.8442 69.9651 50.5831 69.7183 51.2792C70.2668 51.3162 70.8116 51.3949 71.3481 51.5148C71.8855 49.7717 71.7217 47.8878 70.8915 46.2636C69.8515 44.1955 67.8009 43.5765 65.9783 43.5526C65.981 43.4575 65.9842 40.8526 65.9842 40.8526C65.9839 40.3889 65.7998 39.9442 65.4721 39.6161C65.1444 39.288 64.7 39.1032 64.2363 39.1024H33.7325C33.2687 39.1032 32.8243 39.2879 32.4965 39.616C32.1688 39.9442 31.9846 40.3889 31.9844 40.8526V43.27C32.0801 45.8682 32.6761 48.4236 33.7396 50.7962C33.7469 50.811 40.4486 62.7355 40.4486 62.7355ZM33.6034 43.27V40.8526C33.6032 40.8181 33.6166 40.7849 33.6408 40.7604C33.665 40.7358 33.698 40.7218 33.7325 40.7214H64.2363C64.2708 40.7218 64.3037 40.7358 64.3279 40.7604C64.352 40.785 64.3654 40.8182 64.3651 40.8526V43.27C64.3651 43.4865 64.3548 43.7186 64.3382 43.9595H33.6305C33.6135 43.7186 33.6034 43.4865 33.6034 43.27Z" fill="#2A2552"/>
<path d="M48.9764 70.6738C35.1837 70.6738 26.7145 67.8448 26.7145 65.8166C26.7145 64.4047 30.8222 62.606 37.969 61.6423L37.119 60.1302C30.2392 61.1211 25.0955 63.0349 25.0955 65.8166C25.0955 70.0682 37.1091 72.2928 48.9764 72.2928C50.1551 72.2928 51.3347 72.2699 52.5039 72.2262C52.2974 71.7071 52.1359 71.1712 52.0209 70.6246C51.0362 70.6556 50.0237 70.6738 48.9764 70.6738ZM36.4288 31.2826C36.669 31.2826 36.9038 31.2114 37.1034 31.078C37.3031 30.9446 37.4588 30.7549 37.5507 30.533C37.6426 30.3111 37.6666 30.067 37.6198 29.8314C37.5729 29.5959 37.4573 29.3795 37.2875 29.2097C37.1176 29.0399 36.9013 28.9242 36.6657 28.8774C36.4302 28.8305 36.186 28.8546 35.9641 28.9465C35.7423 29.0384 35.5526 29.194 35.4192 29.3937C35.2858 29.5934 35.2145 29.8282 35.2145 30.0683C35.2149 30.3903 35.343 30.6989 35.5706 30.9266C35.7982 31.1542 36.1069 31.2823 36.4288 31.2826ZM36.4288 29.4612C36.5489 29.4612 36.6663 29.4968 36.7661 29.5635C36.866 29.6302 36.9438 29.7251 36.9898 29.836C37.0357 29.9469 37.0477 30.069 37.0243 30.1868C37.0009 30.3046 36.9431 30.4127 36.8581 30.4977C36.7732 30.5826 36.665 30.6404 36.5473 30.6638C36.4295 30.6872 36.3074 30.6752 36.1965 30.6293C36.0855 30.5833 35.9907 30.5055 35.924 30.4057C35.8573 30.3058 35.8217 30.1884 35.8217 30.0683C35.8218 29.9074 35.8859 29.753 35.9997 29.6392C36.1135 29.5254 36.2679 29.4614 36.4288 29.4612ZM73.1321 26.15C72.972 26.15 72.8155 26.1974 72.6824 26.2864C72.5492 26.3753 72.4455 26.5018 72.3842 26.6497C72.3229 26.7976 72.3069 26.9604 72.3381 27.1174C72.3694 27.2744 72.4465 27.4187 72.5597 27.5319C72.6729 27.6451 72.8172 27.7222 72.9742 27.7535C73.1312 27.7847 73.294 27.7687 73.4419 27.7074C73.5898 27.6461 73.7163 27.5424 73.8052 27.4092C73.8942 27.2761 73.9416 27.1196 73.9416 26.9595C73.9414 26.7449 73.856 26.5391 73.7043 26.3873C73.5525 26.2356 73.3467 26.1502 73.1321 26.15ZM73.1321 27.3642C73.0521 27.3642 72.9738 27.3405 72.9072 27.296C72.8407 27.2516 72.7888 27.1883 72.7582 27.1144C72.7275 27.0404 72.7195 26.959 72.7351 26.8805C72.7507 26.802 72.7893 26.7299 72.8459 26.6733C72.9025 26.6167 72.9746 26.5781 73.0531 26.5625C73.1317 26.5469 73.213 26.5549 73.287 26.5855C73.361 26.6162 73.4242 26.668 73.4687 26.7346C73.5131 26.8012 73.5369 26.8794 73.5369 26.9595C73.5368 27.0668 73.4941 27.1697 73.4182 27.2456C73.3423 27.3215 73.2394 27.3641 73.1321 27.3642ZM72.3226 39.4131C72.1625 39.4131 72.006 39.4606 71.8728 39.5496C71.7397 39.6385 71.636 39.7649 71.5747 39.9129C71.5134 40.0608 71.4974 40.2236 71.5286 40.3806C71.5599 40.5376 71.637 40.6819 71.7502 40.7951C71.8634 40.9083 72.0076 40.9854 72.1647 41.0166C72.3217 41.0479 72.4845 41.0318 72.6324 40.9706C72.7803 40.9093 72.9067 40.8055 72.9957 40.6724C73.0846 40.5393 73.1321 40.3828 73.1321 40.2227C73.1319 40.008 73.0465 39.8023 72.8947 39.6505C72.743 39.4987 72.5372 39.4134 72.3226 39.4131ZM72.3226 40.6274C72.2425 40.6274 72.1643 40.6037 72.0977 40.5592C72.0312 40.5147 71.9793 40.4515 71.9486 40.3775C71.918 40.3036 71.91 40.2222 71.9256 40.1437C71.9412 40.0652 71.9798 39.993 72.0364 39.9364C72.093 39.8798 72.1651 39.8413 72.2436 39.8257C72.3221 39.81 72.4035 39.8181 72.4775 39.8487C72.5514 39.8793 72.6147 39.9312 72.6591 39.9978C72.7036 40.0643 72.7274 40.1426 72.7274 40.2227C72.7272 40.33 72.6846 40.4329 72.6087 40.5087C72.5328 40.5846 72.4299 40.6273 72.3226 40.6274ZM83.3812 31.0058C83.2211 31.0058 83.0646 31.0533 82.9315 31.1422C82.7983 31.2312 82.6946 31.3576 82.6333 31.5055C82.572 31.6535 82.556 31.8162 82.5872 31.9733C82.6185 32.1303 82.6956 32.2745 82.8088 32.3878C82.922 32.501 83.0662 32.5781 83.2233 32.6093C83.3803 32.6405 83.5431 32.6245 83.691 32.5632C83.8389 32.502 83.9653 32.3982 84.0543 32.2651C84.1433 32.132 84.1907 31.9754 84.1907 31.8153C84.1905 31.6007 84.1051 31.3949 83.9534 31.2432C83.8016 31.0914 83.5958 31.0061 83.3812 31.0058ZM83.3812 32.2201C83.3012 32.2201 83.2229 32.1964 83.1563 32.1519C83.0898 32.1074 83.0379 32.0442 83.0073 31.9702C82.9766 31.8963 82.9686 31.8149 82.9842 31.7364C82.9998 31.6579 83.0384 31.5857 83.095 31.5291C83.1516 31.4725 83.2237 31.434 83.3022 31.4183C83.3808 31.4027 83.4621 31.4107 83.5361 31.4414C83.6101 31.472 83.6733 31.5239 83.7178 31.5905C83.7622 31.657 83.786 31.7353 83.786 31.8153C83.7859 31.9226 83.7432 32.0255 83.6673 32.1014C83.5914 32.1773 83.4885 32.22 83.3812 32.2201ZM23.0717 23.2348C23.0717 23.0747 23.0242 22.9182 22.9353 22.7851C22.8463 22.6519 22.7199 22.5482 22.572 22.4869C22.424 22.4256 22.2613 22.4096 22.1042 22.4408C21.9472 22.4721 21.803 22.5492 21.6897 22.6624C21.5765 22.7756 21.4994 22.9199 21.4682 23.0769C21.437 23.2339 21.453 23.3967 21.5143 23.5446C21.5755 23.6925 21.6793 23.819 21.8124 23.9079C21.9455 23.9969 22.1021 24.0443 22.2622 24.0443C22.4768 24.0441 22.6825 23.9587 22.8343 23.807C22.9861 23.6552 23.0714 23.4494 23.0717 23.2348ZM21.8574 23.2348C21.8574 23.1548 21.8811 23.0765 21.9256 23.0099C21.9701 22.9434 22.0333 22.8915 22.1073 22.8609C22.1812 22.8302 22.2626 22.8222 22.3411 22.8378C22.4196 22.8535 22.4918 22.892 22.5484 22.9486C22.605 23.0052 22.6435 23.0773 22.6591 23.1559C22.6748 23.2344 22.6667 23.3158 22.6361 23.3897C22.6055 23.4637 22.5536 23.5269 22.487 23.5714C22.4205 23.6158 22.3422 23.6396 22.2622 23.6396C22.1548 23.6395 22.052 23.5968 21.9761 23.5209C21.9002 23.445 21.8575 23.3421 21.8574 23.2348Z" fill="#2A2552"/>
<path d="M21.4072 43.1547L22.009 42.363L21.629 42.1476L21.2424 43.0341H21.2299L20.8372 42.1541L20.4507 42.3755L21.0461 43.1482V43.1612L20.1147 43.0405V43.4712L21.0522 43.351V43.3635L20.4507 44.1362L20.8113 44.3641L21.2234 43.4712H21.2359L21.616 44.3576L22.0151 44.1297L21.4072 43.37V43.3571L22.3632 43.4712V43.0405L21.4072 43.1672V43.1547Z" fill="#A3D7E8"/>
<path d="M38.749 16.7002L38.4025 17.1451L38.6106 17.2762L38.8478 16.7622H38.8551L39.0736 17.2726L39.3035 17.1414L38.9534 16.7035V16.6962L39.5039 16.7622V16.514L38.9534 16.5869V16.5796L39.2999 16.1239L39.0813 16L38.8587 16.5104H38.8514L38.6256 16.0032L38.4025 16.1311L38.7458 16.576V16.5833L38.2095 16.514V16.7622L38.749 16.693V16.7002Z" fill="#A3D7E8"/>
<path d="M76.4141 17.7328V17.3106L75.4767 17.4345V17.4223L76.0668 16.646L75.6941 16.4347L75.3152 17.3041H75.3026L74.9177 16.4408L74.5385 16.6581L75.1225 17.4162V17.4284L74.209 17.3106V17.7328L75.1286 17.615V17.6275L74.5385 18.3848L74.8922 18.6087L75.2966 17.7328H75.3087L75.6815 18.6026L76.0729 18.3788L75.4767 17.6336V17.621L76.4141 17.7328Z" fill="#A3D7E8"/>
<path d="M60.998 22.3394L61.5072 21.6699L61.1859 21.4877L60.8588 22.2378H60.8479L60.516 21.493L60.1889 21.6804L60.6929 22.3341V22.345L59.9048 22.243V22.6073L60.6981 22.5057V22.5162L60.1889 23.1699L60.4941 23.363L60.8426 22.6073H60.8531L61.1749 23.3577L61.5125 23.1647L60.998 22.5215V22.511L61.8072 22.6073V22.243L60.998 22.3503V22.3394Z" fill="#A3D7E8"/>
<path d="M17.8095 76.3403C18.2566 76.3403 18.619 75.9778 18.619 75.5308C18.619 75.0837 18.2566 74.7212 17.8095 74.7212C17.3624 74.7212 17 75.0837 17 75.5308C17 75.9778 17.3624 76.3403 17.8095 76.3403Z" fill="#2A2552"/>
<path d="M21.452 74.7214H20.2377C20.023 74.7214 19.8171 74.8067 19.6653 74.9585C19.5135 75.1103 19.4282 75.3162 19.4282 75.5309C19.4282 75.7456 19.5135 75.9515 19.6653 76.1033C19.8171 76.2552 20.023 76.3405 20.2377 76.3405H21.452C21.6667 76.3405 21.8726 76.2552 22.0245 76.1033C22.1763 75.9515 22.2616 75.7456 22.2616 75.5309C22.2616 75.3162 22.1763 75.1103 22.0245 74.9585C21.8726 74.8067 21.6667 74.7214 21.452 74.7214ZM81.7616 74.7214H80.5473C80.3326 74.7214 80.1267 74.8067 79.9749 74.9585C79.823 75.1103 79.7377 75.3162 79.7377 75.5309C79.7377 75.7456 79.823 75.9515 79.9749 76.1033C80.1267 76.2552 80.3326 76.3405 80.5473 76.3405H81.7616C81.9763 76.3405 82.1822 76.2552 82.334 76.1033C82.4858 75.9515 82.5711 75.7456 82.5711 75.5309C82.5711 75.3162 82.4858 75.1103 82.334 74.9585C82.1822 74.8067 81.9763 74.7214 81.7616 74.7214Z" fill="#2A2552"/>
<path d="M84.1904 76.3403C84.6375 76.3403 84.9999 75.9778 84.9999 75.5308C84.9999 75.0837 84.6375 74.7212 84.1904 74.7212C83.7433 74.7212 83.3809 75.0837 83.3809 75.5308C83.3809 75.9778 83.7433 76.3403 84.1904 76.3403Z" fill="#2A2552"/>
<path d="M64.8243 77.9595H61.4617C61.2582 77.9758 61.0683 78.0682 60.9298 78.2182C60.7913 78.3682 60.7144 78.5649 60.7144 78.769C60.7144 78.9732 60.7913 79.1699 60.9298 79.3199C61.0683 79.4699 61.2582 79.5622 61.4617 79.5786H64.8243C65.0278 79.5622 65.2177 79.4699 65.3562 79.3199C65.4947 79.1699 65.5716 78.9732 65.5716 78.769C65.5716 78.5649 65.4947 78.3682 65.3562 78.2182C65.2177 78.0682 65.0278 77.9758 64.8243 77.9595ZM40.5386 77.9595H37.176C36.9725 77.9758 36.7826 78.0682 36.6441 78.2182C36.5056 78.3682 36.4287 78.5649 36.4287 78.769C36.4287 78.9732 36.5056 79.1699 36.6441 79.3199C36.7826 79.4699 36.9725 79.5622 37.176 79.5786H40.5386C40.7421 79.5622 40.932 79.4699 41.0705 79.3199C41.209 79.1699 41.2859 78.9732 41.2859 78.769C41.2859 78.5649 41.209 78.3682 41.0705 78.2182C40.932 78.0682 40.7421 77.9758 40.5386 77.9595ZM59.0954 77.9595H42.9049C42.6902 77.9595 42.4843 78.0448 42.3325 78.1966C42.1807 78.3484 42.0954 78.5543 42.0954 78.769C42.0954 78.9837 42.1807 79.1896 42.3325 79.3414C42.4843 79.4933 42.6902 79.5786 42.9049 79.5786H49.3568V80.3881H46.143C45.9283 80.3881 45.7224 80.4734 45.5706 80.6252C45.4188 80.777 45.3335 80.9829 45.3335 81.1976C45.3335 81.4123 45.4188 81.6182 45.5706 81.77C45.7224 81.9218 45.9283 82.0071 46.143 82.0071H56.2621C56.4768 82.0071 56.6827 81.9218 56.8345 81.77C56.9863 81.6182 57.0716 81.4123 57.0716 81.1976C57.0716 80.9829 56.9863 80.777 56.8345 80.6252C56.6827 80.4734 56.4768 80.3881 56.2621 80.3881H52.6435V79.5786H59.0954C59.3101 79.5786 59.516 79.4933 59.6678 79.3414C59.8196 79.1896 59.9049 78.9837 59.9049 78.769C59.9049 78.5543 59.8196 78.3484 59.6678 78.1966C59.516 78.0448 59.3101 77.9595 59.0954 77.9595Z" fill="#A3D7E8"/>
<path d="M78.006 74.7214H67.5692C69.2088 73.8652 70.7076 72.763 72.0137 71.4533C77.2685 66.2066 78.4801 58.8648 74.7139 55.0867C73.2644 53.6327 71.2635 52.8641 68.9274 52.8641C65.3696 52.8641 61.4164 54.6908 58.3518 57.7507C53.0963 62.9977 51.8855 70.34 55.6521 74.118C55.8702 74.3338 56.102 74.5354 56.346 74.7214H23.9935C23.8783 74.7064 23.7613 74.7161 23.6501 74.7499C23.539 74.7837 23.4364 74.8408 23.3491 74.9174C23.2618 74.994 23.1919 75.0884 23.144 75.1942C23.0961 75.3 23.0713 75.4148 23.0713 75.531C23.0713 75.6471 23.0961 75.7619 23.144 75.8677C23.1919 75.9735 23.2618 76.0679 23.3491 76.1445C23.4364 76.2211 23.539 76.2782 23.6501 76.312C23.7613 76.3458 23.8783 76.3555 23.9935 76.3405H78.006C78.1211 76.3555 78.2382 76.3458 78.3493 76.312C78.4604 76.2782 78.563 76.2211 78.6503 76.1445C78.7376 76.0679 78.8075 75.9735 78.8554 75.8677C78.9034 75.7619 78.9281 75.6471 78.9281 75.531C78.9281 75.4148 78.9034 75.3 78.8554 75.1942C78.8075 75.0884 78.7376 74.994 78.6503 74.9174C78.563 74.8408 78.4604 74.7837 78.3493 74.7499C78.2382 74.7161 78.1211 74.7064 78.006 74.7214ZM55.4821 70.8892C54.2398 67.507 55.7434 62.6426 59.4958 58.8963C62.2635 56.133 65.7894 54.4831 68.9274 54.4831C70.4434 54.4351 71.9291 54.9139 73.1316 55.8382C71.2657 56.2727 69.4852 57.0146 67.863 58.0337C65.515 59.5632 64.6794 61.9463 63.8719 64.2509C63.0304 66.6517 62.2354 68.9191 59.7404 70.0356C58.3943 70.6082 56.945 70.8987 55.4821 70.8892ZM56.7988 72.9749C56.6442 72.8182 56.4991 72.6525 56.3644 72.4784C57.7552 72.3877 59.1206 72.0615 60.4021 71.5136C63.5327 70.1121 64.4818 67.4049 65.3996 64.7866C66.151 62.6434 66.8605 60.619 68.7468 59.3902C70.5053 58.2446 72.2604 57.7226 74.3376 57.1975C76.4456 60.5487 75.0586 66.1252 70.8698 70.3076C68.1017 73.0713 64.5758 74.7214 61.4378 74.7214C60.587 74.7552 59.7382 74.618 58.9414 74.318C58.1446 74.0181 57.416 73.5613 56.7988 72.9749Z" fill="#2A2552"/>
</svg>
