<svg width="78" height="38" viewBox="0 0 78 38" fill="none" xmlns="http://www.w3.org/2000/svg">
<path d="M22.8311 24.2736C22.4818 24.9922 21.6113 25.2933 20.8888 24.9461C20.1653 24.5988 19.863 23.7334 20.2122 23.0148C20.5615 22.2962 23.0855 20.4299 23.0855 20.4299C23.0855 20.4299 23.1804 23.555 22.8311 24.2736ZM28.0262 25.3825C27.7374 25.1454 27.3089 24.6964 27.2171 24.0701C27.1025 23.4145 27.0555 22.742 27.0378 22.0748C27.0065 20.9114 27.1056 19.7386 26.9951 18.5846C26.8137 16.6901 25.8357 15.2927 23.9508 14.722C21.9335 14.1125 19.9651 14.3601 18.1062 15.3536C17.3431 15.7617 16.7082 16.3197 16.3276 17.1149C15.552 18.7378 16.6738 20.5002 18.4034 20.3817C18.8569 20.3512 19.3187 20.1037 19.6649 19.7617C20.0621 19.3683 20.085 18.7556 19.79 18.2815C19.7274 18.1818 19.693 18.0601 19.6742 17.9038C19.5596 16.9555 20.4218 16.1341 21.3913 16.261C22.6122 16.4215 23.1303 17.4863 23.0521 18.5332C23.0448 18.6329 22.9687 18.7535 22.8864 18.8154C22.4839 19.1207 22.1003 19.4711 21.653 19.6893C20.7231 20.1425 19.7566 20.5201 18.8068 20.9324C17.9686 21.2964 17.1388 21.6793 16.4746 22.3297C14.9483 23.8246 15.4102 26.399 17.4234 27.1197C19.7149 27.9401 21.823 27.4722 23.6996 25.8587C23.734 25.9185 23.7788 25.9993 23.8247 26.078C24.1896 26.7064 24.6816 27.1879 25.3968 27.4071C26.7032 27.8068 27.8906 27.1858 28.219 26.0035C28.2826 25.7769 28.2086 25.5304 28.0262 25.3804V25.3825Z" fill="#2A2552"/>
<path d="M14.1247 14.3947H8.70865C8.79727 14.8636 8.89839 15.2728 8.94844 15.6882C9.32897 18.8165 9.41967 21.9594 9.37067 25.1045C9.34773 26.5752 9.23201 28.0491 9.0579 29.5105C8.99848 30.0109 8.86295 30.506 8.70552 30.9949C8.44071 31.6526 7.9528 32.1761 7.20216 32.0974C6.44735 32.0187 6.11894 31.4481 6.24509 30.9298C6.36081 30.4557 6.27845 29.9416 5.91669 29.6133C5.76969 29.479 5.57786 29.3647 5.32973 29.2975C4.54885 29.0846 3.47919 29.4465 2.98815 30.2595C2.11657 31.704 2.62221 34.0235 4.85015 34.9236C5.96673 35.3747 7.13335 35.4261 8.31144 35.2897C10.0702 35.0872 11.4756 34.2899 12.441 32.7898C13.2229 31.575 13.5899 30.2175 13.8067 28.8129C14.1133 26.8281 14.1195 24.8286 14.0924 22.827C14.0549 20.025 13.9694 17.2219 14.1247 14.3947ZM11.4433 12.2127C12.7121 12.2127 13.74 11.1899 13.74 9.92892C13.74 8.66796 12.7121 7.64514 11.4433 7.64514C10.1745 7.64514 9.14652 8.66796 9.14652 9.92892C9.14652 11.1899 10.1745 12.2127 11.4433 12.2127Z" fill="#2A2552"/>
<path d="M71.9792 14.421C70.8074 14.4252 69.6356 14.4283 68.4637 14.443C68.3803 14.443 68.2896 14.508 68.2636 14.5867C68.1614 14.893 68.0832 15.2077 68.0008 15.5204C67.3774 17.9028 66.7581 20.2851 66.1295 22.6654C66.0335 23.0274 65.8959 23.3798 65.7781 23.7355C65.5738 23.4176 65.4247 23.1113 65.3256 22.7892C64.4937 20.0921 63.668 17.3919 62.8527 14.6906C62.7901 14.4818 62.7161 14.4273 62.4951 14.4315C61.3024 14.4514 60.1097 14.4461 58.9181 14.4493C58.7242 14.4493 58.5292 14.4493 58.3134 14.4493C58.352 14.5668 58.3812 14.6748 58.4229 14.7787C58.8243 15.7952 59.2298 16.8096 59.6291 17.8262C60.8354 20.8967 62.0489 23.9631 63.2364 27.04C63.5835 27.9401 63.7535 28.8873 63.6993 29.8588C63.6899 30.0298 63.6732 30.1987 63.6482 30.3644C63.4689 31.255 63.0091 32.0439 62.1657 31.9369C61.4129 31.8415 61.0835 31.4114 61.1742 30.8784C61.2357 30.5144 61.2003 30.1315 60.9803 29.8336C60.6373 29.3699 60.1202 29.1391 59.4675 29.1737C58.6867 29.2146 58.1205 29.6133 57.7306 30.2668C56.981 31.5236 57.2646 33.2808 58.3781 34.2878C59.1349 34.9718 60.0587 35.2372 61.0522 35.3254C62.9674 35.4943 64.5625 34.9362 65.6593 33.2944C65.9856 32.8066 66.2796 32.2926 66.534 31.7649C67.3982 29.9647 67.9758 28.0586 68.5565 26.1567C69.5626 22.8658 70.5457 19.5676 71.5393 16.2725C71.7228 15.6651 71.9136 15.0598 72.1023 14.4472C72.0387 14.4325 72.0095 14.421 71.9792 14.421Z" fill="#2A2552"/>
<path d="M38.851 14.4692L36.2342 23.4659C36.2019 23.554 36.1696 23.6432 36.1393 23.7313C36.0872 23.7313 36.0861 23.7313 36.033 23.7334C34.8601 20.7216 33.9698 17.6269 33.3786 14.4692C31.5969 14.4692 29.8256 14.4692 28.0168 14.4692C28.0522 14.5668 28.0866 14.6727 28.1273 14.7755C29.0155 17.0289 29.9424 19.2686 30.7827 21.5398C31.4145 23.2487 31.9462 24.9943 32.4966 26.7316C32.6634 27.2592 32.6238 27.2508 33.1712 27.2519C34.613 27.255 36.0559 27.2708 37.4978 27.298C37.7396 27.3022 37.8397 27.2278 37.9075 27.0022L41.7535 14.4682H38.851V14.4692Z" fill="#2A2552"/>
<path d="M53.8909 14.4692L51.2741 23.4659C51.2418 23.554 51.2094 23.6432 51.1792 23.7313C51.1271 23.7313 51.126 23.7313 51.0729 23.7334C49.9 20.7216 49.0097 17.6269 48.4185 14.4692C46.6368 14.4692 44.8655 14.4692 43.0567 14.4692C43.0921 14.5668 43.1265 14.6727 43.1672 14.7755C44.0554 17.0289 44.9823 19.2686 45.8226 21.5398C46.4544 23.2487 46.9861 24.9943 47.5365 26.7316C47.7033 27.2592 47.6637 27.2508 48.2111 27.2519C49.6529 27.255 51.0958 27.2708 52.5377 27.298C52.7795 27.3022 52.8796 27.2278 52.9474 27.0022L56.7934 14.4682H53.8909V14.4692Z" fill="#2A2552"/>
<path d="M75.5583 12.5715V13.0236H75.0642V14.3916H74.5658V13.0236H74.0748V12.5715H75.5583Z" fill="#2A2552"/>
<path d="M78 14.3926H77.4985L77.3567 13.3446L76.8782 14.3947H76.7312L76.2506 13.3446L76.1109 14.3926H75.6073L75.8815 12.5725H76.3778L76.8042 13.5639L77.2327 12.5725H77.731L78 14.3926Z" fill="#2A2552"/>
<path d="M2.98607 5.55856C2.98607 5.55856 2.97356 7.02303 3.61369 7.18668C4.74486 7.47622 5.4048 7.6084 5.31618 7.83814C5.22652 8.06788 3.70335 8.06788 3.52507 8.41302C3.34679 8.75816 3.43541 10.3286 2.98711 10.2331C2.53986 10.1366 2.60032 8.83474 2.15098 8.45183C1.70373 8.06893 0.0617031 8.18852 0.00123493 7.89899C-0.0592333 7.60945 2.12075 7.41852 2.18122 7.07338C2.24169 6.72825 2.32926 5.77151 2.38973 5.55961C2.4502 5.3498 2.83698 5.15782 2.98607 5.55961V5.55856Z" fill="#FAA819"/>
<path d="M19.3552 30.9361C19.3552 30.9361 19.3396 32.7415 20.1288 32.944C21.5248 33.3017 22.338 33.4643 22.2285 33.7465C22.1169 34.0297 20.2403 34.0297 20.0193 34.4556C19.7983 34.8816 19.9078 36.8191 19.3563 36.7006C18.8047 36.5821 18.8788 34.976 18.3252 34.5039C17.7737 34.0318 15.748 34.1787 15.674 33.822C15.5999 33.4643 18.2887 33.2293 18.3627 32.8044C18.4367 32.3785 18.5462 31.1983 18.6202 30.9371C18.6942 30.678 19.1717 30.4409 19.3552 30.9371V30.9361Z" fill="#FAA819"/>
<path d="M22.0992 37.2377C21.6541 36.7311 21.6457 36.1719 22.0909 35.7785C22.5361 35.3862 23.1022 34.6309 23.7089 35.8131C24.2281 36.8286 23.9206 36.9304 23.4754 37.3227C23.0302 37.7151 22.854 38.0969 22.1013 37.2346L22.0992 37.2367V37.2377Z" fill="#FAA819"/>
<path d="M71.0138 1.23647C71.0138 1.23647 70.9909 3.72377 72.0783 4.00177C73.9987 4.49377 75.1215 4.71827 74.9682 5.10851C74.8171 5.49876 72.2294 5.49876 71.925 6.08413C71.6206 6.6695 71.7718 9.33828 71.0117 9.17463C70.2517 9.01098 70.3528 6.80063 69.5918 6.15022C68.8318 5.49981 66.0419 5.70228 65.9397 5.21027C65.8386 4.71932 69.5396 4.39411 69.6408 3.80769C69.7419 3.22127 69.8931 1.5963 69.9952 1.23857C70.0974 0.880847 70.7553 0.556691 71.0096 1.23857L71.0128 1.23647H71.0138Z" fill="#FAA819"/>
<path d="M67.588 7.67029L68.4241 8.45498C68.518 8.5431 68.5253 8.65955 68.4439 8.75186L67.6234 9.68342C67.4598 9.87015 67.0448 9.87539 66.8686 9.69391L65.9064 8.70675C65.8063 8.6029 65.8188 8.47072 65.9418 8.37735L66.8884 7.64826C67.0751 7.50454 67.4243 7.51608 67.588 7.66924V7.67029Z" fill="#FAA819"/>
</svg>
