<svg width="96" height="56" viewBox="0 0 96 56" fill="none" xmlns="http://www.w3.org/2000/svg">
<g clip-path="url(#clip0_2372_4859)">
<path d="M21.6929 24.0369L19.9202 18.5789L31.7226 13.3074H35.6879V45.9624H28.5971V21.4245C26.4045 22.3575 23.4189 23.2905 21.6929 24.0369ZM50.3422 40.5977C54.7273 40.5977 57.1531 37.8453 57.1531 34.7198C57.1531 32.2473 55.0072 29.6816 51.0886 29.6816C48.896 29.6816 46.1437 30.3813 44.4643 32.0607L39.7526 30.1947L40.8256 13.3074H61.9114V19.0454H46.9834L46.5169 25.9496H46.7501C48.6628 24.5034 51.3218 24.2235 53.0012 24.2235C58.9724 24.2235 64.2439 28.9352 64.2439 34.7198C64.2439 41.6706 59.2523 46.4756 50.6221 46.4756C45.7705 46.4756 41.432 45.3093 38.4464 42.557L41.8985 38.1252C45.7705 40.3644 48.4295 40.5977 50.3422 40.5977ZM79.9726 42.7436H74.048V34.2066H65.4178V28.7952H74.048V20.2583H79.9726V28.7952H88.5562V34.2066H79.9726V42.7436Z" fill="white"/>
<path d="M83.5779 7.69337C83.5685 7.36758 83.1462 7.01351 82.2179 6.23108L81.8131 5.89032C81.3752 5.51906 81.8553 4.27584 82.0572 3.87062L82.0742 3.83573L82.0795 3.79517C82.1229 3.35118 81.8588 3.18437 81.7445 3.13355C81.5003 3.02436 81.1694 3.09353 80.9941 3.28635C80.8798 3.41293 80.6636 3.74889 80.3393 4.24801C80.1573 4.53345 79.9733 4.81314 79.886 4.94329C79.7287 5.02021 78.9246 4.83999 78.4432 4.72568C77.4592 4.50114 76.8677 4.36681 76.7716 4.7516C76.6865 5.0842 77.1156 5.35528 77.7642 5.76666C78.2632 6.08133 78.8787 6.47186 79.0152 6.78276C79.1358 7.0572 79.0313 7.55778 78.9416 7.99842C78.817 8.59949 78.6979 9.16964 79.0519 9.44732C79.0791 9.47017 79.1063 9.48337 79.1334 9.49657C79.2148 9.53618 79.3037 9.55064 79.3941 9.5323C79.7463 9.46868 80.0556 9.01023 80.4917 8.32092C80.6717 8.02971 80.8802 7.69962 80.9931 7.61547C81.1327 7.5156 81.8852 7.73302 82.2451 7.84094C82.9337 8.0417 83.2741 8.13055 83.4631 7.9588C83.5395 7.89048 83.5809 7.79554 83.5779 7.69337Z" fill="#FBAA19"/>
<path d="M11.7751 35.3204C12.3711 34.6442 12.3825 33.903 11.7865 33.3834C11.1905 32.86 10.4303 31.8553 9.62414 33.4331C8.93264 34.7856 9.34143 34.9193 9.93742 35.4388C10.5296 35.9623 10.7665 36.4666 11.7751 35.3242" fill="#FBAA19"/>
<path d="M81.7506 52.1664C82.3466 51.4901 82.3581 50.749 81.7621 50.2294C81.1661 49.706 80.4058 48.7012 79.5997 50.2791C78.9082 51.6315 79.317 51.7652 79.913 52.2848C80.5052 52.8082 80.742 53.3125 81.7506 52.1702" fill="#FBAA19"/>
<path d="M6.05767 21.3751C6.05767 21.3751 6.08486 24.2196 4.83085 24.539C2.6219 25.1032 1.32712 25.358 1.50383 25.8066C1.68055 26.2518 4.65754 26.2518 5.00757 26.9213C5.3576 27.5908 5.18428 30.6425 6.05767 30.459C6.93445 30.2721 6.81891 27.7437 7.69229 26.9961C8.56907 26.2518 11.7805 26.4829 11.8961 25.9222C12.0116 25.3614 7.75006 24.9876 7.63452 24.3181C7.51897 23.6486 7.34226 21.7863 7.22671 21.3785C7.11117 20.9673 6.34993 20.5969 6.05767 21.3785" fill="#FBAA19"/>
</g>
<defs>
<clipPath id="clip0_2372_4859">
<rect width="96" height="56" fill="white"/>
</clipPath>
</defs>
</svg>
